<?xml version="1.0" encoding="UTF-8" standalone="no"?>
<!-- Created with Inkscape (http://www.inkscape.org/) -->

<svg
   xmlns:dc="http://purl.org/dc/elements/1.1/"
   xmlns:cc="http://creativecommons.org/ns#"
   xmlns:rdf="http://www.w3.org/1999/02/22-rdf-syntax-ns#"
   xmlns:svg="http://www.w3.org/2000/svg"
   xmlns="http://www.w3.org/2000/svg"
   xmlns:sodipodi="http://sodipodi.sourceforge.net/DTD/sodipodi-0.dtd"
   xmlns:inkscape="http://www.inkscape.org/namespaces/inkscape"
   width="1024"
   height="1024"
   id="svg2"
   version="1.1"
   inkscape:version="0.48.4 r9939"
   sodipodi:docname="wm-icon-shadow.svg"
   inkscape:export-filename="/home/rataciber/Pictures/icon-shadow.png"
   inkscape:export-xdpi="164.03"
   inkscape:export-ydpi="164.03">
  <sodipodi:namedview
     id="base"
     pagecolor="#ffffff"
     bordercolor="#666666"
     borderopacity="1.0"
     inkscape:pageopacity="0.0"
     inkscape:pageshadow="2"
     inkscape:zoom="0.42177734"
     inkscape:cx="221.94848"
     inkscape:cy="341.40729"
     inkscape:document-units="px"
     inkscape:current-layer="layer1"
     showgrid="false"
     inkscape:window-width="1327"
     inkscape:window-height="744"
     inkscape:window-x="1405"
     inkscape:window-y="24"
     inkscape:window-maximized="1" />
  <defs
     id="defs4">
    <clipPath
       clipPathUnits="userSpaceOnUse"
       id="clipPath7762">
      <rect
         ry="2.0561779"
         rx="1.3390558"
         y="28.125092"
         x="-4.7418385"
         height="1028.9789"
         width="1036.0917"
         id="rect7764"
         style="fill:#008000;fill-opacity:1;stroke:none" />
    </clipPath>
    <clipPath
       clipPathUnits="userSpaceOnUse"
       id="clipPath9366">
      <rect
         ry="2.0561779"
         rx="1.3390558"
         y="28.125092"
         x="-4.7418385"
         height="1028.9789"
         width="1036.0917"
         id="rect9368"
         style="fill:#008000;fill-opacity:1;stroke:none" />
    </clipPath>
  </defs>
  <metadata
     id="metadata7">
    <rdf:RDF>
      <cc:Work
         rdf:about="">
        <dc:format>image/svg+xml</dc:format>
        <dc:type
           rdf:resource="http://purl.org/dc/dcmitype/StillImage" />
        <dc:title></dc:title>
      </cc:Work>
    </rdf:RDF>
  </metadata>
  <g
     transform="translate(0,-28.362183)"
     id="layer1"
     inkscape:groupmode="layer"
     inkscape:label="Layer 1">
    <rect
       style="fill:#00b600;fill-opacity:1;stroke:none"
       id="rect7758"
       width="1024"
       height="1024"
       x="1.3039989"
       y="30.614532"
       rx="1.3234284"
       ry="2.0462286" />
    <g
       id="g9370"
       style="opacity:0.35"
       transform="matrix(0.98832953,0,0,0.99516134,5.9904979,2.6255288)">
      <g
         clip-path="url(#clipPath9366)"
         id="g7777">
        <g
           id="g7779"
           style="fill:#333333;fill-opacity:1">
          <path
             id="path7781"
             d="m 76.080162,769.99075 c 0,-11.33947 3.257527,-12.19528 46.419908,-12.19528 l 424.26407,424.26403 c -43.16238,0 -46.41991,0.8558 -46.41991,12.1953 z"
             inkscape:connector-curvature="0" />
          <path
             id="path7783"
             d="m 122.50007,757.79547 c 46.25701,0 46.41988,-0.0536 46.41988,-15.2441 l 424.26407,424.26403 c 0,15.1905 -0.16287,15.2441 -46.41988,15.2441 z"
             inkscape:connector-curvature="0" />
          <path
             id="path7785"
             d="m 168.91995,742.55137 c 0,-6.24839 -0.35678,-9.95579 -2.54672,-12.14573 L 590.6373,1154.6697 c 2.18994,2.19 2.54672,5.8973 2.54672,12.1457 z"
             inkscape:connector-curvature="0" />
          <path
             id="path7787"
             d="m 166.37323,730.40564 c -2.71749,-2.71748 -8.2577,-3.09836 -19.44164,-3.09836 l 424.26407,424.26402 c 11.18393,0 16.72415,0.3809 19.44164,3.0984 z"
             inkscape:connector-curvature="0" />
          <path
             id="path7789"
             d="m 146.93159,727.30728 c -11.20739,0 -16.8752,-0.64682 -19.62016,-3.39178 l 424.26407,424.2641 c 2.74496,2.7449 8.41276,3.3917 19.62016,3.3917 z"
             inkscape:connector-curvature="0" />
          <path
             id="path7791"
             d="m 127.31143,723.9155 c -1.84267,-1.84267 -2.36821,-4.63083 -2.36821,-8.80351 l 424.26407,424.26411 c 0,4.1726 0.52554,6.9608 2.36821,8.8035 z"
             inkscape:connector-curvature="0" />
          <path
             id="path7793"
             d="m 124.94322,715.11199 c 0,-10.38856 3.25755,-12.19527 21.98837,-12.19527 l 424.26407,424.26408 c -18.73082,0 -21.98837,1.8067 -21.98837,12.1953 z"
             inkscape:connector-curvature="0" />
          <path
             id="path7795"
             d="m 146.93159,702.91672 c 20.19674,0 21.98836,-1.24211 21.98836,-15.24409 l 424.26407,424.26407 c 0,14.002 -1.79162,15.2441 -21.98836,15.2441 z"
             inkscape:connector-curvature="0" />
          <path
             id="path7797"
             d="m 168.91995,687.67263 c 0,-5.51937 -0.0215,-9.04039 -2.26769,-11.28658 l 424.26407,424.26405 c 2.24619,2.2462 2.26769,5.7672 2.26769,11.2866 z"
             inkscape:connector-curvature="0" />
          <path
             id="path7799"
             d="m 166.65226,676.38605 c -3.93585,-3.93585 -14.70223,-3.95753 -44.15219,-3.95753 l 424.26407,424.26408 c 29.44995,0 40.21634,0.022 44.15219,3.9575 z"
             inkscape:connector-curvature="0" />
          <path
             id="path7801"
             d="m 122.50007,672.42852 c -29.564766,0 -40.407033,-0.40152 -44.3042,-4.29869 l 424.26407,424.26407 c 3.89717,3.8972 14.73943,4.2987 44.3042,4.2987 z"
             inkscape:connector-curvature="0" />
          <path
             id="path7803"
             d="m 78.19587,668.12983 c -1.79241,-1.79241 -2.115708,-4.32426 -2.115708,-7.89658 L 500.34423,1084.4973 c 0,3.5723 0.3233,6.1042 2.11571,7.8966 z"
             inkscape:connector-curvature="0" />
          <path
             id="path7805"
             d="m 76.080162,660.23325 c 0,-11.40434 3.257527,-12.19526 50.227508,-12.19526 l 424.26407,424.26411 c -46.96998,0 -50.22751,0.7909 -50.22751,12.1952 z"
             inkscape:connector-curvature="0" />
          <path
             id="path7807"
             d="m 126.30767,648.03799 c 36.3732,0 47.34404,0.90431 53.54645,7.10672 l 424.26407,424.26409 c -6.20241,-6.2024 -17.17325,-7.1067 -53.54645,-7.1067 z"
             inkscape:connector-curvature="0" />
          <path
             id="path7809"
             d="m 179.85412,655.14471 c 1.40661,1.40661 2.56797,3.08571 3.72476,5.08854 l 424.26407,424.26405 c -1.15679,-2.0028 -2.31815,-3.6819 -3.72476,-5.0885 z"
             inkscape:connector-curvature="0" />
          <path
             id="path7811"
             d="m 183.57888,660.23325 c 1.04661,1.81208 2.4076,3.53514 3.95749,5.08504 l 424.26407,424.26411 c -1.54989,-1.5499 -2.91088,-3.273 -3.95749,-5.0851 z"
             inkscape:connector-curvature="0" />
          <path
             id="path7813"
             d="m 187.53637,665.31829 c 4.18704,4.18704 9.75273,7.11023 14.22328,7.11023 l 424.26407,424.26408 c -4.47055,0 -10.03624,-2.9232 -14.22328,-7.1102 z"
             inkscape:connector-curvature="0" />
          <path
             id="path7815"
             d="m 201.75965,672.42852 c 3.77652,0 6.49132,0.8194 8.29461,2.62269 l 424.26407,424.26409 c -1.80329,-1.8033 -4.51809,-2.6227 -8.29461,-2.6227 z"
             inkscape:connector-curvature="0" />
          <path
             id="path7817"
             d="m 210.05426,675.05121 c 1.95918,1.95918 2.84245,5.07973 2.84245,9.57259 l 424.26407,424.2641 c 0,-4.4929 -0.88327,-7.6134 -2.84245,-9.5726 z"
             inkscape:connector-curvature="0" />
          <path
             id="path7819"
             d="m 212.89671,684.6238 c 0,8.94321 -3.25754,12.19528 -12.21576,12.19528 l 424.26407,424.26402 c 8.95822,0 12.21576,-3.252 12.21576,-12.1952 z"
             inkscape:connector-curvature="0" />
          <path
             id="path7821"
             d="m 200.68095,696.81908 c -10.31554,0 -12.21577,2.84557 -12.21577,18.29291 l 424.26407,424.26411 c 0,-15.4474 1.90023,-18.293 12.21577,-18.293 z"
             inkscape:connector-curvature="0" />
          <path
             id="path7823"
             d="m 188.46518,715.11199 c 0,8.78553 0.61466,13.49482 3.04254,15.9227 l 424.26407,424.26411 c -2.42788,-2.4279 -3.04254,-7.1372 -3.04254,-15.9227 z"
             inkscape:connector-curvature="0" />
          <path
             id="path7825"
             d="m 191.50772,731.03469 c 1.84099,1.841 4.72455,2.37023 9.17323,2.37023 L 624.94502,1157.669 c -4.44868,0 -7.33224,-0.5292 -9.17323,-2.3702 z"
             inkscape:connector-curvature="0" />
          <path
             id="path7827"
             d="m 200.68095,733.40492 c 4.40354,0 7.80484,1.15974 9.88718,3.24208 l 424.26407,424.2641 c -2.08234,-2.0824 -5.48364,-3.2421 -9.88718,-3.2421 z"
             inkscape:connector-curvature="0" />
          <path
             id="path7829"
             d="m 210.56813,736.647 c 1.51197,1.51197 2.32858,3.51036 2.32858,5.90437 l 424.26407,424.26403 c 0,-2.394 -0.81661,-4.3924 -2.32858,-5.9043 z"
             inkscape:connector-curvature="0" />
          <path
             id="path7831"
             d="m 212.89671,742.55137 c 0,5.03056 -4.08968,9.14647 -9.08818,9.14647 L 628.0726,1175.9619 c 4.9985,0 9.08818,-4.1159 9.08818,-9.1465 z"
             inkscape:connector-curvature="0" />
          <path
             id="path7833"
             d="m 203.80853,751.69784 c -4.99849,0 -13.21632,6.85983 -18.26181,15.24409 L 609.81079,1191.206 c 5.04549,-8.3843 13.26332,-15.2441 18.26181,-15.2441 z"
             inkscape:connector-curvature="0" />
          <path
             id="path7835"
             d="m 185.54672,766.94193 c -8.7418,14.52645 -11.5344,15.2441 -59.32012,15.2441 l 424.26407,424.26407 c 47.78572,0 50.57832,-0.7177 59.32012,-15.2441 z"
             inkscape:connector-curvature="0" />
          <path
             id="path7837"
             d="m 126.2266,782.18603 c -32.485866,0 -44.028312,-0.38027 -48.054159,-4.40612 L 502.43651,1202.044 c 4.02585,4.0258 15.56829,4.4061 48.05416,4.4061 z"
             inkscape:connector-curvature="0" />
          <path
             id="path7839"
             d="m 78.172441,777.77991 c -1.784913,-1.78491 -2.092279,-4.28644 -2.092279,-7.78916 L 500.34423,1194.2548 c 0,3.5027 0.30737,6.0043 2.09228,7.7892 z"
             inkscape:connector-curvature="0" />
          <path
             id="path7841"
             d="m 242.21455,708.16143 0,-61.82931 424.26407,424.26408 0,61.8293 z"
             inkscape:connector-curvature="0" />
          <path
             id="path7843"
             d="m 242.21455,646.33212 16.77394,22.19466 424.26407,424.26402 -16.77394,-22.1946 z"
             inkscape:connector-curvature="0" />
          <path
             id="path7845"
             d="m 258.98849,668.52678 c 4.83545,6.39809 8.83539,11.28311 12.30331,14.75104 l 424.26407,424.26408 c -3.46793,-3.4679 -7.46786,-8.353 -12.30331,-14.7511 z"
             inkscape:connector-curvature="0" />
          <path
             id="path7847"
             d="m 271.2918,683.27782 c 10.05272,10.05272 15.63501,8.19774 24.13959,-3.22724 l 424.26407,424.26402 c -8.50458,11.425 -14.08687,13.28 -24.13959,3.2273 z"
             inkscape:connector-curvature="0" />
          <path
             id="path7849"
             d="m 295.43139,680.05058 c 4.36878,-5.86898 12.87233,-15.89803 18.89678,-22.2868 l 424.26407,424.26402 c -6.02445,6.3888 -14.528,16.4179 -18.89678,22.2868 z"
             inkscape:connector-curvature="0" />
          <path
             id="path7851"
             d="m 314.32817,657.76378 10.95355,-11.61591 424.26407,424.26403 -10.95355,11.6159 z"
             inkscape:connector-curvature="0" />
          <path
             id="path7853"
             d="m 325.28172,646.14787 0,61.92143 424.26407,424.2641 0,-61.9215 z"
             inkscape:connector-curvature="0" />
          <path
             id="path7855"
             d="m 325.28172,708.0693 c 0,50.97619 -1.29555,61.92145 -7.32944,61.92145 l 424.26407,424.26405 c 6.03389,0 7.32944,-10.9452 7.32944,-61.9214 z"
             inkscape:connector-curvature="0" />
          <path
             id="path7857"
             d="m 317.95228,769.99075 c -1.22625,0 -2.26409,-0.37618 -3.13784,-1.24993 l 424.26407,424.26408 c 0.87375,0.8737 1.91159,1.2499 3.13784,1.2499 z"
             inkscape:connector-curvature="0" />
          <path
             id="path7859"
             d="m 314.81444,768.74082 c -3.18821,-3.18822 -4.19163,-13.0012 -4.19163,-35.3359 L 734.88688,1157.669 c 0,22.3347 1.00342,32.1477 4.19163,35.3359 z"
             inkscape:connector-curvature="0" />
          <path
             id="path7861"
             d="m 310.62281,733.40492 c 0,-22.29346 -1.02746,-32.18655 -4.20724,-35.36634 l 424.26407,424.26412 c 3.17978,3.1797 4.20724,13.0728 4.20724,35.3663 z"
             inkscape:connector-curvature="0" />
          <path
             id="path7863"
             d="m 306.41557,698.03858 c -0.8491,-0.84909 -1.85166,-1.2195 -3.02912,-1.2195 l 424.26407,424.26402 c 1.17745,0 2.18002,0.3705 3.02912,1.2196 z"
             inkscape:connector-curvature="0" />
          <path
             id="path7865"
             d="m 303.38645,696.81908 c -3.98,0 -8.61605,6.85985 -10.30232,15.2441 L 717.3482,1136.3272 c 1.68627,-8.3842 6.32232,-15.2441 10.30232,-15.2441 z"
             inkscape:connector-curvature="0" />
          <path
             id="path7867"
             d="m 293.08413,712.06318 c -2.31451,11.50784 -11.14905,18.3953 -14.93092,14.61343 l 424.26407,424.26409 c 3.78187,3.7818 12.61641,-3.1056 14.93092,-14.6135 z"
             inkscape:connector-curvature="0" />
          <path
             id="path7869"
             d="m 278.15321,726.67661 c -1.06919,-1.06919 -1.73453,-2.99113 -1.73453,-5.90253 l 424.26407,424.26402 c 0,2.9114 0.66534,4.8334 1.73453,5.9026 z"
             inkscape:connector-curvature="0" />
          <path
             id="path7871"
             d="m 276.41868,720.77408 c 0,-4.99222 -6.33965,-15.41451 -11.63787,-20.71272 l 424.26407,424.26404 c 5.29821,5.2982 11.63787,15.7205 11.63787,20.7127 z"
             inkscape:connector-curvature="0" />
          <path
             id="path7873"
             d="m 264.78081,700.06136 c -1.97836,-1.97836 -3.81151,-3.24228 -5.11518,-3.24228 L 683.9297,1121.0831 c 1.30367,0 3.13682,1.264 5.11518,3.2423 z"
             inkscape:connector-curvature="0" />
          <path
             id="path7875"
             d="m 259.66563,696.81908 c -1.53569,0 -2.79219,16.46363 -2.79219,36.58584 L 681.13751,1157.669 c 0,-20.1222 1.2565,-36.5859 2.79219,-36.5859 z"
             inkscape:connector-curvature="0" />
          <path
             id="path7877"
             d="m 256.87344,733.40492 c 0,28.45565 -1.62875,36.58583 -7.32944,36.58583 l 424.26407,424.26405 c 5.70069,0 7.32944,-8.1302 7.32944,-36.5858 z"
             inkscape:connector-curvature="0" />
          <path
             id="path7879"
             d="m 249.544,769.99075 c -1.02042,0 -1.90533,-0.31281 -2.67138,-1.07886 L 671.13668,1193.176 c 0.76606,0.766 1.65097,1.0788 2.67139,1.0788 z"
             inkscape:connector-curvature="0" />
          <path
             id="path7881"
             d="m 246.87262,768.91189 c -3.76321,-3.76321 -4.65807,-18.46413 -4.65807,-60.75046 l 424.26407,424.26407 c 0,42.2863 0.89486,56.9873 4.65806,60.7505 z"
             inkscape:connector-curvature="0" />
          <path
             id="path7883"
             d="m 347.79289,760.34559 c -1.63127,-5.30485 -2.96593,-28.4039 -2.96593,-51.33123 l 424.26407,424.26404 c 0,22.9274 1.33466,46.0264 2.96593,51.3313 z"
             inkscape:connector-curvature="0" />
          <path
             id="path7885"
             d="m 344.82696,709.01436 c 0,-59.94337 0.61314,-60.97637 36.1928,-60.97637 l 424.26407,424.26411 c -35.57966,0 -36.1928,1.033 -36.1928,60.9763 z"
             inkscape:connector-curvature="0" />
          <path
             id="path7887"
             d="m 381.01976,648.03799 c 16.49735,0 31.85232,3.00736 35.78476,6.9398 l 424.26407,424.26411 c -3.93245,-3.9325 -19.28742,-6.9398 -35.78476,-6.9398 z"
             inkscape:connector-curvature="0" />
          <path
             id="path7889"
             d="m 416.80452,654.97779 c 0.12487,0.12488 0.23823,0.25069 0.33974,0.37736 l 424.26407,424.26405 c -0.10151,-0.1267 -0.21487,-0.2525 -0.33974,-0.3773 z"
             inkscape:connector-curvature="0" />
          <path
             id="path7891"
             d="m 417.14426,655.35515 c 3.53185,4.4074 5.86357,25.74556 5.86357,53.65921 L 847.2719,1133.2784 c 0,-27.9136 -2.33172,-49.2518 -5.86357,-53.6592 z"
             inkscape:connector-curvature="0" />
          <path
             id="path7893"
             d="m 423.00783,709.01436 c 0,27.91363 -2.33172,49.25181 -5.86357,53.65922 l 424.26407,424.26402 c 3.53185,-4.4074 5.86357,-25.7455 5.86357,-53.6592 z"
             inkscape:connector-curvature="0" />
          <path
             id="path7895"
             d="m 417.14426,762.67358 c -8.56728,10.69114 -58.07538,9.79102 -67.85891,0.007 l 424.26406,424.26404 c 9.78354,9.7836 59.29164,10.6837 67.85892,-0.01 z"
             inkscape:connector-curvature="0" />
          <path
             id="path7897"
             d="m 349.28535,762.68106 c -0.72948,-0.72948 -1.23811,-1.50834 -1.49246,-2.33547 l 424.26407,424.26411 c 0.25434,0.8271 0.76298,1.606 1.49245,2.3354 z"
             inkscape:connector-curvature="0" />
          <path
             id="path7899"
             d="m 408.34892,709.01436 0,-42.68347 424.26407,424.26411 0,42.6834 z"
             inkscape:connector-curvature="0" />
          <path
             id="path7901"
             d="m 408.34892,666.33089 -26.87468,0 424.26407,424.26411 26.87468,0 z"
             inkscape:connector-curvature="0" />
          <path
             id="path7903"
             d="m 381.47424,666.33089 -26.87469,0 424.26407,424.26411 26.87469,0 z"
             inkscape:connector-curvature="0" />
          <path
             id="path7905"
             d="m 354.59955,666.33089 0,42.68347 424.26407,424.26404 0,-42.6834 z"
             inkscape:connector-curvature="0" />
          <path
             id="path7907"
             d="m 354.59955,709.01436 0,42.68348 424.26407,424.26406 0,-42.6835 z"
             inkscape:connector-curvature="0" />
          <path
             id="path7909"
             d="m 354.59955,751.69784 26.87469,0 424.26407,424.26406 -26.87469,0 z"
             inkscape:connector-curvature="0" />
          <path
             id="path7911"
             d="m 381.47424,751.69784 26.87468,0 424.26407,424.26406 -26.87468,0 z"
             inkscape:connector-curvature="0" />
          <path
             id="path7913"
             d="m 408.34892,751.69784 0,-42.68348 424.26407,424.26404 0,42.6835 z"
             inkscape:connector-curvature="0" />
          <path
             id="path7915"
             d="m 442.55305,708.0693 0,-61.92143 424.26407,424.26403 0,61.9215 z"
             inkscape:connector-curvature="0" />
          <path
             id="path7917"
             d="m 442.55305,646.14787 10.56517,11.61591 424.26407,424.26402 -10.56517,-11.6159 z"
             inkscape:connector-curvature="0" />
          <path
             id="path7919"
             d="m 453.11822,657.76378 c 5.81085,6.38877 19.28393,23.27766 29.94016,37.53089 l 424.26407,424.26403 c -10.65623,-14.2532 -24.12931,-31.1421 -29.94016,-37.5309 z"
             inkscape:connector-curvature="0" />
          <path
             id="path7921"
             d="m 483.05838,695.29467 c 6.78113,9.07009 13.55468,17.09075 18.18864,21.72471 l 424.26407,424.26412 c -4.63396,-4.634 -11.40752,-12.6547 -18.18864,-21.7248 z"
             inkscape:connector-curvature="0" />
          <path
             id="path7923"
             d="m 501.24702,717.01938 c 2.64811,2.64811 4.59751,4.19025 5.45033,4.19025 l 424.26407,424.26407 c -0.85282,0 -2.80222,-1.5421 -5.45033,-4.1902 z"
             inkscape:connector-curvature="0" />
          <path
             id="path7925"
             d="m 506.69735,721.20963 c 2.34519,0 4.26399,-16.46362 4.26399,-36.58583 l 424.26407,424.2641 c 0,20.1222 -1.9188,36.5858 -4.26399,36.5858 z"
             inkscape:connector-curvature="0" />
          <path
             id="path7927"
             d="m 510.96134,684.6238 c 0,-28.45565 1.62876,-36.58581 7.32945,-36.58581 l 424.26407,424.26411 c -5.70069,0 -7.32945,8.1301 -7.32945,36.5858 z"
             inkscape:connector-curvature="0" />
          <path
             id="path7929"
             d="m 518.29079,648.03799 c 1.01848,0 1.90195,0.31231 2.66696,1.07732 l 424.26407,424.26409 c -0.76501,-0.765 -1.64848,-1.0773 -2.66696,-1.0773 z"
             inkscape:connector-curvature="0" />
          <path
             id="path7931"
             d="m 520.95775,649.11531 c 3.76836,3.76835 4.6625,18.52132 4.6625,61.03987 l 424.26407,424.26402 c 0,-42.5185 -0.89414,-57.2715 -4.6625,-61.0398 z"
             inkscape:connector-curvature="0" />
          <path
             id="path7933"
             d="m 525.62025,710.15518 0,62.1172 424.26407,424.26402 0,-62.1172 z"
             inkscape:connector-curvature="0" />
          <path
             id="path7935"
             d="m 525.62025,772.27238 -15.30634,-17.90932 424.26407,424.26404 15.30634,17.9093 z"
             inkscape:connector-curvature="0" />
          <path
             id="path7937"
             d="m 510.31391,754.36306 c -8.4185,-9.85014 -22.38336,-26.82712 -31.03303,-37.72667 l 424.26407,424.26411 c 8.64967,10.8995 22.61453,27.8765 31.03303,37.7266 z"
             inkscape:connector-curvature="0" />
          <path
             id="path7939"
             d="m 479.28088,716.63639 c -5.04193,-6.35338 -10.03437,-12.03341 -13.66731,-15.66635 l 424.26407,424.26406 c 3.63294,3.6329 8.62538,9.313 13.66731,15.6664 z"
             inkscape:connector-curvature="0" />
          <path
             id="path7941"
             d="m 465.61357,700.97004 c -2.59954,-2.59954 -4.50301,-4.15096 -5.23047,-4.15096 l 424.26407,424.26402 c 0.72746,0 2.63093,1.5515 5.23047,4.151 z"
             inkscape:connector-curvature="0" />
          <path
             id="path7943"
             d="m 460.3831,696.81908 c -1.74413,0 -3.17113,16.46363 -3.17113,36.58584 L 881.47604,1157.669 c 0,-20.1222 1.427,-36.5859 3.17113,-36.5859 z"
             inkscape:connector-curvature="0" />
          <path
             id="path7945"
             d="m 457.21197,733.40492 c 0,28.45565 -1.62876,36.58583 -7.32945,36.58583 l 424.26407,424.26405 c 5.70069,0 7.32945,-8.1302 7.32945,-36.5858 z"
             inkscape:connector-curvature="0" />
          <path
             id="path7947"
             d="m 449.88252,769.99075 c -1.0198,0 -1.90425,-0.31265 -2.66998,-1.07837 l 424.26407,424.26402 c 0.76572,0.7658 1.65018,1.0784 2.66998,1.0784 z"
             inkscape:connector-curvature="0" />
          <path
             id="path7949"
             d="m 447.21254,768.91238 c -3.76486,-3.76487 -4.65949,-18.48246 -4.65949,-60.84308 l 424.26407,424.2641 c 0,42.3606 0.89463,57.0782 4.65949,60.843 z"
             inkscape:connector-curvature="0" />
          <path
             id="path7951"
             d="m 545.16547,760.84429 c 0,-7.26728 7.09405,-9.14645 34.52869,-9.14645 l 424.26404,424.26406 c -27.43461,0 -34.52866,1.8792 -34.52866,9.1465 z"
             inkscape:connector-curvature="0" />
          <path
             id="path7953"
             d="m 579.69416,751.69784 34.52869,0 424.26405,424.26406 -34.5287,0 z"
             inkscape:connector-curvature="0" />
          <path
             id="path7955"
             d="m 614.22285,751.69784 -1.54612,-16.76853 424.26407,424.26409 1.5461,16.7685 z"
             inkscape:connector-curvature="0" />
          <path
             id="path7957"
             d="m 612.67673,734.92931 c -0.60715,-6.58476 -1.14798,-10.59594 -3.70645,-13.1544 L 1033.2344,1146.039 c 2.5584,2.5584 3.0992,6.5696 3.7064,13.1544 z"
             inkscape:connector-curvature="0" />
          <path
             id="path7959"
             d="m 608.97028,721.77491 c -3.75041,-3.75042 -11.83638,-4.37923 -30.82224,-5.41711 l 424.26406,424.2641 c 18.9859,1.0378 27.0718,1.6667 30.8223,5.4171 z"
             inkscape:connector-curvature="0" />
          <path
             id="path7961"
             d="m 578.14804,716.3578 -32.98257,-1.80301 424.26407,424.26411 32.98256,1.803 z"
             inkscape:connector-curvature="0" />
          <path
             id="path7963"
             d="m 545.16547,714.55479 0,-25.94124 424.26407,424.26405 0,25.9413 z"
             inkscape:connector-curvature="0" />
          <path
             id="path7965"
             d="m 545.16547,688.61355 c 0,-14.26768 2.63862,-29.23397 5.86357,-33.2584 l 424.26407,424.26405 c -3.22495,4.0244 -5.86357,18.9907 -5.86357,33.2584 z"
             inkscape:connector-curvature="0" />
          <path
             id="path7967"
             d="m 551.02904,655.35515 c 3.41084,-4.25641 19.76237,-7.31716 39.09045,-7.31716 l 424.26411,424.26411 c -19.32812,0 -35.67965,3.0607 -39.09049,7.3171 z"
             inkscape:connector-curvature="0" />
          <path
             id="path7969"
             d="m 590.11949,648.03799 c 19.22396,0 28.10348,1.02383 31.48532,4.40567 l 424.26409,424.26404 c -3.3819,-3.3818 -12.2614,-4.4056 -31.4853,-4.4056 z"
             inkscape:connector-curvature="0" />
          <path
             id="path7971"
             d="m 621.60481,652.44366 c 1.24084,1.24084 1.74156,2.79913 1.74156,4.74077 l 424.26403,424.26407 c 0,-1.9416 -0.5007,-3.4999 -1.7415,-4.7408 z"
             inkscape:connector-curvature="0" />
          <path
             id="path7973"
             d="m 623.34637,657.18443 c 0,7.19209 -6.78656,9.14646 -31.76099,9.14646 L 1015.8494,1090.595 c 24.9745,0 31.761,-1.9544 31.761,-9.1465 z"
             inkscape:connector-curvature="0" />
          <path
             id="path7975"
             d="m 591.58538,666.33089 -31.761,0 424.26407,424.26411 31.76095,0 z"
             inkscape:connector-curvature="0" />
          <path
             id="path7977"
             d="m 559.82438,666.33089 0,18.00196 424.26407,424.26405 0,-18.0019 z"
             inkscape:connector-curvature="0" />
          <path
             id="path7979"
             d="m 559.82438,684.33285 c 0,7.85478 0.0587,12.28612 2.71237,14.93975 l 424.26407,424.2641 c -2.65363,-2.6537 -2.71237,-7.085 -2.71237,-14.9398 z"
             inkscape:connector-curvature="0" />
          <path
             id="path7981"
             d="m 562.53675,699.2726 c 3.36785,3.36785 10.91536,3.87227 27.82706,4.87757 l 424.26409,424.26403 c -16.91172,-1.0053 -24.45923,-1.5097 -27.82708,-4.8775 z"
             inkscape:connector-curvature="0" />
          <path
             id="path7983"
             d="m 590.36381,704.15017 c 17.10922,1.01703 24.65943,1.64494 28.28499,5.2705 l 424.2641,424.26403 c -3.6256,-3.6255 -11.1758,-4.2534 -28.285,-5.2705 z"
             inkscape:connector-curvature="0" />
          <path
             id="path7985"
             d="m 618.6488,709.42067 c 2.64669,2.64669 3.20187,6.89088 3.8575,14.05014 l 424.2641,424.26409 c -0.6557,-7.1593 -1.2108,-11.4035 -3.8575,-14.0502 z"
             inkscape:connector-curvature="0" />
          <path
             id="path7987"
             d="m 622.5063,723.47081 c 0.88173,9.6279 0.29025,24.03358 -1.31465,32.01262 l 424.26405,424.26407 c 1.6049,-7.979 2.1964,-22.3847 1.3147,-32.0126 z"
             inkscape:connector-curvature="0" />
          <path
             id="path7989"
             d="m 621.19165,755.48343 c -2.74753,13.6607 -5.05103,14.50732 -39.47197,14.50732 l 424.26402,424.26405 c 34.421,0 36.7245,-0.8466 39.472,-14.5073 z"
             inkscape:connector-curvature="0" />
          <path
             id="path7991"
             d="m 581.71968,769.99075 c -21.71085,0 -31.33506,-1.00999 -34.85092,-4.52585 l 424.26407,424.2641 c 3.51585,3.5158 13.14007,4.5258 34.85087,4.5258 z"
             inkscape:connector-curvature="0" />
          <path
             id="path7993"
             d="m 546.86876,765.4649 c -1.21848,-1.21848 -1.70329,-2.73792 -1.70329,-4.62061 l 424.26407,424.26411 c 0,1.8826 0.48481,3.4021 1.70329,4.6206 z"
             inkscape:connector-curvature="0" />
          <path
             id="path7995"
             d="m 677.09572,718.16082 0,-51.82993 424.26408,424.26411 0,51.8299 z"
             inkscape:connector-curvature="0" />
          <path
             id="path7997"
             d="m 677.09572,666.33089 -17.10206,0 424.26404,424.26411 17.1021,0 z"
             inkscape:connector-curvature="0" />
          <path
             id="path7999"
             d="m 659.99366,666.33089 c -7.66878,0 -12.54001,-1.1371 -15.04476,-3.64185 l 424.2641,424.26406 c 2.5047,2.5048 7.3759,3.6419 15.0447,3.6419 z"
             inkscape:connector-curvature="0" />
          <path
             id="path8001"
             d="m 644.9489,662.68904 c -1.39645,-1.39644 -2.05732,-3.218 -2.05732,-5.50461 l 424.26402,424.26407 c 0,2.2866 0.6609,4.1082 2.0574,5.5046 z"
             inkscape:connector-curvature="0" />
          <path
             id="path8003"
             d="m 642.89158,657.18443 c 0,-7.41281 7.87239,-9.14644 41.53359,-9.14644 l 424.26403,424.26411 c -33.6612,0 -41.5336,1.7336 -41.5336,9.1464 z"
             inkscape:connector-curvature="0" />
          <path
             id="path8005"
             d="m 684.42517,648.03799 c 25.47976,0 36.18331,0.99332 39.88116,4.69116 l 424.26407,424.26405 c -3.6978,-3.6978 -14.4014,-4.6911 -39.8812,-4.6911 z"
             inkscape:connector-curvature="0" />
          <path
             id="path8007"
             d="m 724.30633,652.72915 c 1.18736,1.18737 1.65242,2.65358 1.65242,4.45528 l 424.26405,424.26407 c 0,-1.8017 -0.465,-3.2679 -1.6524,-4.4553 z"
             inkscape:connector-curvature="0" />
          <path
             id="path8009"
             d="m 725.95875,657.18443 c 0,6.388 -5.15778,9.14646 -17.10205,9.14646 l 424.2641,424.26411 c 11.9442,0 17.102,-2.7585 17.102,-9.1465 z"
             inkscape:connector-curvature="0" />
          <path
             id="path8011"
             d="m 708.8567,666.33089 -17.10208,0 424.26408,424.26411 17.1021,0 z"
             inkscape:connector-curvature="0" />
          <path
             id="path8013"
             d="m 691.75462,666.33089 0,51.82993 424.26408,424.26408 0,-51.8299 z"
             inkscape:connector-curvature="0" />
          <path
             id="path8015"
             d="m 691.75462,718.16082 c 0,42.00596 -1.38921,51.82993 -7.32945,51.82993 l 424.26403,424.26405 c 5.9403,0 7.3295,-9.824 7.3295,-51.8299 z"
             inkscape:connector-curvature="0" />
          <path
             id="path8017"
             d="m 684.42517,769.99075 c -1.09306,0 -2.03202,-0.33263 -2.83659,-1.1372 l 424.26412,424.26405 c 0.8045,0.8046 1.7435,1.1372 2.8365,1.1372 z"
             inkscape:connector-curvature="0" />
          <path
             id="path8019"
             d="m 681.58858,768.85355 c -3.56786,-3.56786 -4.49286,-16.41625 -4.49286,-50.69273 l 424.26408,424.26408 c 0,34.2765 0.925,47.1249 4.4929,50.6927 z"
             inkscape:connector-curvature="0" />
          <path
             id="path8021"
             d="m 745.50399,709.01436 0,-60.97637 424.26411,424.26411 0,60.9763 z"
             inkscape:connector-curvature="0" />
          <path
             id="path8023"
             d="m 745.50399,648.03799 41.53357,0 424.26404,424.26411 -41.5335,0 z"
             inkscape:connector-curvature="0" />
          <path
             id="path8025"
             d="m 787.03756,648.03799 c 25.47981,0 36.18339,0.99332 39.88125,4.69117 l 424.26409,424.26404 c -3.6979,-3.6978 -14.4015,-4.6911 -39.8813,-4.6911 z"
             inkscape:connector-curvature="0" />
          <path
             id="path8027"
             d="m 826.91881,652.72916 c 1.18736,1.18737 1.65242,2.65357 1.65242,4.45527 l 424.26407,424.26407 c 0,-1.8017 -0.4651,-3.2679 -1.6524,-4.4553 z"
             inkscape:connector-curvature="0" />
          <path
             id="path8029"
             d="m 828.57123,657.18443 c 0,7.2591 -7.05803,9.14646 -34.20414,9.14646 L 1218.6312,1090.595 c 27.1461,0 34.2041,-1.8874 34.2041,-9.1465 z"
             inkscape:connector-curvature="0" />
          <path
             id="path8031"
             d="m 794.36709,666.33089 -34.20418,0 424.26409,424.26411 34.2042,0 z"
             inkscape:connector-curvature="0" />
          <path
             id="path8033"
             d="m 760.16291,666.33089 0,18.29291 424.26409,424.2641 0,-18.2929 z"
             inkscape:connector-curvature="0" />
          <path
             id="path8035"
             d="m 760.16291,684.6238 c 0,8.07288 0,12.5831 2.51981,15.10291 l 424.26408,424.26409 c -2.5198,-2.5198 -2.5198,-7.0301 -2.5198,-15.1029 z"
             inkscape:connector-curvature="0" />
          <path
             id="path8037"
             d="m 762.68272,699.72671 c 3.19001,3.19001 10.41849,3.19001 26.79802,3.19001 l 424.26406,424.26408 c -16.3795,0 -23.608,0 -26.798,-3.19 z"
             inkscape:connector-curvature="0" />
          <path
             id="path8039"
             d="m 789.48074,702.91672 c 14.19946,0 25.92317,2.05972 28.69586,4.83242 l 424.2641,424.26406 c -2.7727,-2.7727 -14.4964,-4.8324 -28.6959,-4.8324 z"
             inkscape:connector-curvature="0" />
          <path
             id="path8041"
             d="m 818.1766,707.74914 c 0.40775,0.40775 0.62192,0.83092 0.62192,1.26522 l 424.26408,424.26404 c 0,-0.4343 -0.2142,-0.8574 -0.6219,-1.2652 z"
             inkscape:connector-curvature="0" />
          <path
             id="path8043"
             d="m 818.79852,709.01436 c 0,3.38759 -13.03016,6.09763 -29.31778,6.09763 l 424.26406,424.26411 c 16.2876,0 29.3178,-2.7101 29.3178,-6.0977 z"
             inkscape:connector-curvature="0" />
          <path
             id="path8045"
             d="m 789.48074,715.11199 c -29.31783,0 -29.31783,0 -29.31783,18.29293 L 1184.427,1157.669 c 0,-18.2929 0,-18.2929 29.3178,-18.2929 z"
             inkscape:connector-curvature="0" />
          <path
             id="path8047"
             d="m 760.16291,733.40492 0,18.29292 424.26409,424.26406 0,-18.2929 z"
             inkscape:connector-curvature="0" />
          <path
             id="path8049"
             d="m 760.16291,751.69784 34.20418,0 424.26411,424.26406 -34.2042,0 z"
             inkscape:connector-curvature="0" />
          <path
             id="path8051"
             d="m 794.36709,751.69784 c 19.95151,0 29.05189,1.01951 32.47425,4.44187 l 424.26406,424.26409 c -3.4223,-3.4224 -12.5227,-4.4419 -32.4742,-4.4419 z"
             inkscape:connector-curvature="0" />
          <path
             id="path8053"
             d="m 826.84134,756.13971 c 1.23412,1.23411 1.72989,2.78069 1.72989,4.70458 l 424.26407,424.26411 c 0,-1.9239 -0.4958,-3.4705 -1.7299,-4.7046 z"
             inkscape:connector-curvature="0" />
          <path
             id="path8055"
             d="m 828.57123,760.84429 c 0,7.41282 -7.87242,9.14646 -41.53367,9.14646 l 424.26404,424.26405 c 33.6613,0 41.5337,-1.7336 41.5337,-9.1464 z"
             inkscape:connector-curvature="0" />
          <path
             id="path8057"
             d="m 787.03756,769.99075 -41.53357,0 424.26411,424.26405 41.5335,0 z"
             inkscape:connector-curvature="0" />
          <path
             id="path8059"
             d="m 745.50399,769.99075 0,-60.97639 424.26411,424.26404 0,60.9764 z"
             inkscape:connector-curvature="0" />
          <path
             id="path8061"
             d="m 848.11642,709.01436 0,-60.97637 424.26408,424.26411 0,60.9763 z"
             inkscape:connector-curvature="0" />
          <path
             id="path8063"
             d="m 848.11642,648.03799 36.12453,0 424.26405,424.26411 -36.1245,0 z"
             inkscape:connector-curvature="0" />
          <path
             id="path8065"
             d="m 884.24095,648.03799 c 20.175,0 30.70614,0.57583 36.18479,6.05447 l 424.26406,424.26404 c -5.4786,-5.4786 -16.0098,-6.0544 -36.1848,-6.0544 z"
             inkscape:connector-curvature="0" />
          <path
             id="path8067"
             d="m 920.42574,654.09246 c 5.2998,5.2998 5.87158,15.18755 5.87158,33.58017 l 424.26408,424.26407 c 0,-18.3926 -0.5718,-28.2804 -5.8716,-33.5802 z"
             inkscape:connector-curvature="0" />
          <path
             id="path8069"
             d="m 926.29732,687.67263 c 0,28.24317 -4.36348,39.63465 -15.18174,39.63465 l 424.26402,424.26402 c 10.8183,0 15.1818,-11.3914 15.1818,-39.6346 z"
             inkscape:connector-curvature="0" />
          <path
             id="path8071"
             d="m 911.11558,727.30728 c -12.31221,0 -11.69863,3.59621 3.94519,23.11804 l 424.26403,424.26408 c -15.6438,-19.5218 -16.2574,-23.1181 -3.9452,-23.1181 z"
             inkscape:connector-curvature="0" />
          <path
             id="path8073"
             d="m 915.06077,750.42532 c 11.11431,13.86967 11.88614,16.78061 4.89454,18.46088 l 424.26409,424.2641 c 6.9916,-1.6803 6.2197,-4.5912 -4.8946,-18.4609 z"
             inkscape:connector-curvature="0" />
          <path
             id="path8075"
             d="m 919.95531,768.8862 c -3.24467,0.77978 -9.52158,-3.21609 -16.15366,-9.84817 l 424.26405,424.26407 c 6.6321,6.6321 12.909,10.6279 16.1537,9.8482 z"
             inkscape:connector-curvature="0" />
          <path
             id="path8077"
             d="m 903.80165,759.03803 c -2.87681,-2.87681 -5.82045,-6.24965 -8.61242,-9.94389 l 424.26407,424.26406 c 2.792,3.6943 5.7356,7.0671 8.6124,9.9439 z"
             inkscape:connector-curvature="0" />
          <path
             id="path8079"
             d="m 895.18923,749.09414 c -4.26984,-5.64967 -8.11845,-10.18801 -11.54545,-13.61502 l 424.26402,424.26408 c 3.4271,3.427 7.2757,7.9653 11.5455,13.615 z"
             inkscape:connector-curvature="0" />
          <path
             id="path8081"
             d="m 883.64378,735.47912 c -13.90431,-13.9043 -20.86851,-9.51444 -20.86851,13.16989 l 424.26403,424.26409 c 0,-22.6844 6.9642,-27.0742 20.8685,-13.1699 z"
             inkscape:connector-curvature="0" />
          <path
             id="path8083"
             d="m 862.77527,748.64901 c 0,14.90533 -2.21046,21.34174 -7.32943,21.34174 l 424.26406,424.26405 c 5.119,0 7.3294,-6.4364 7.3294,-21.3417 z"
             inkscape:connector-curvature="0" />
          <path
             id="path8085"
             d="m 855.44584,769.99075 c -1.02619,0 -1.91542,-0.31433 -2.68458,-1.08349 l 424.26404,424.26404 c 0.7692,0.7692 1.6584,1.0835 2.6846,1.0835 z"
             inkscape:connector-curvature="0" />
          <path
             id="path8087"
             d="m 852.76126,768.90726 c -3.74778,-3.74778 -4.64484,-18.29411 -4.64484,-59.8929 l 424.26408,424.26404 c 0,41.5988 0.897,56.1452 4.6448,59.8929 z"
             inkscape:connector-curvature="0" />
          <path
             id="path8089"
             d="m 916.5247,687.67263 0,-21.34174 424.2641,424.26411 0,21.3417 z"
             inkscape:connector-curvature="0" />
          <path
             id="path8091"
             d="m 916.5247,666.33089 -26.87471,0 424.26411,424.26411 26.8747,0 z"
             inkscape:connector-curvature="0" />
          <path
             id="path8093"
             d="m 889.64999,666.33089 -26.87472,0 424.26403,424.26411 26.8748,0 z"
             inkscape:connector-curvature="0" />
          <path
             id="path8095"
             d="m 862.77527,666.33089 0,21.34174 424.26403,424.26407 0,-21.3417 z"
             inkscape:connector-curvature="0" />
          <path
             id="path8097"
             d="m 862.77527,687.67263 0,21.34173 424.26403,424.26404 0,-21.3417 z"
             inkscape:connector-curvature="0" />
          <path
             id="path8099"
             d="m 862.77527,709.01436 26.87472,0 424.26411,424.26404 -26.8748,0 z"
             inkscape:connector-curvature="0" />
          <path
             id="path8101"
             d="m 889.64999,709.01436 26.87471,0 424.2641,424.26404 -26.8747,0 z"
             inkscape:connector-curvature="0" />
          <path
             id="path8103"
             d="m 916.5247,709.01436 0,-21.34173 424.2641,424.26407 0,21.3417 z"
             inkscape:connector-curvature="0" />
          <path
             id="path8105"
             d="m 267.68169,611.5088 c 1.47781,-12.56508 0.18287,-18.32503 -7.89465,-26.40254 l 424.26407,424.26404 c 8.07751,8.0775 9.37246,13.8375 7.89465,26.4026 z"
             inkscape:connector-curvature="0" />
          <path
             id="path8107"
             d="m 259.78704,585.10626 c -1.73326,-1.73327 -3.77882,-3.57324 -6.1763,-5.61006 l 424.26407,424.2641 c 2.39747,2.0368 4.44304,3.8768 6.1763,5.61 z"
             inkscape:connector-curvature="0" />
          <path
             id="path8109"
             d="m 253.61074,579.4962 c -3.0462,-2.58795 -5.90498,-5.22873 -8.34973,-7.67349 l 424.26407,424.26407 c 2.44475,2.44476 5.30353,5.08552 8.34973,7.67352 z"
             inkscape:connector-curvature="0" />
          <path
             id="path8111"
             d="m 245.26101,571.82271 c -4.71299,-4.71298 -7.88729,-8.69746 -7.89938,-10.17056 L 661.6257,985.91622 c 0.0121,1.47309 3.18639,5.45757 7.89938,10.17056 z"
             inkscape:connector-curvature="0" />
          <path
             id="path8113"
             d="m 237.36163,561.65215 c -0.0185,-2.23725 4.40774,-16.99692 9.8358,-32.79932 L 671.4615,953.1169 c -5.42806,15.8024 -9.8543,30.56207 -9.8358,32.79932 z"
             inkscape:connector-curvature="0" />
          <path
             id="path8115"
             d="m 247.19743,528.85283 c 9.72196,-28.30303 10.15165,-28.68432 28.80558,-25.56203 l 424.26407,424.26407 c -18.65393,-3.12229 -19.08362,-2.741 -28.80558,25.56203 z"
             inkscape:connector-curvature="0" />
          <path
             id="path8117"
             d="m 276.00301,503.2908 c 17.51826,2.93217 20.6603,0.98542 41.9556,-25.99474 l 424.26407,424.26407 c -21.2953,26.98016 -24.43734,28.92691 -41.9556,25.99474 z"
             inkscape:connector-curvature="0" />
          <path
             id="path8119"
             d="m 317.95861,477.29606 c 21.51769,-27.26193 22.81386,-30.69869 19.87131,-52.68836 l 424.26407,424.26407 c 2.94255,21.98967 1.64638,25.42643 -19.87131,52.68836 z"
             inkscape:connector-curvature="0" />
          <path
             id="path8121"
             d="m 337.82992,424.6077 -3.14784,-23.52411 424.26407,424.26407 3.14784,23.52411 z"
             inkscape:connector-curvature="0" />
          <path
             id="path8123"
             d="m 334.68208,401.08359 26.18713,-12.73077 424.26407,424.26407 -26.18713,12.73077 z"
             inkscape:connector-curvature="0" />
          <path
             id="path8125"
             d="m 360.86921,388.35282 26.18713,-12.73078 424.26407,424.26407 -26.18713,12.73078 z"
             inkscape:connector-curvature="0" />
          <path
             id="path8127"
             d="m 387.05634,375.62204 9.96533,18.97098 424.26407,424.26407 -9.96533,-18.97098 z"
             inkscape:connector-curvature="0" />
          <path
             id="path8129"
             d="m 397.02167,394.59302 c 3.1505,5.99759 5.46612,10.10127 8.25787,12.89302 l 424.26407,424.26407 c -2.79175,-2.79175 -5.10737,-6.89543 -8.25787,-12.89302 z"
             inkscape:connector-curvature="0" />
          <path
             id="path8131"
             d="m 405.27954,407.48604 c 5.63692,5.63691 13.21493,5.92521 33.52589,5.6556 L 863.0695,837.40571 c -20.31096,0.26961 -27.88897,-0.0187 -33.52589,-5.6556 z"
             inkscape:connector-curvature="0" />
          <path
             id="path8133"
             d="m 438.80543,413.14164 c 28.57725,-0.37932 33.01649,-2.16047 43.57974,-17.48537 l 424.26407,424.26407 c -10.56325,15.3249 -15.00249,17.10605 -43.57974,17.48537 z"
             inkscape:connector-curvature="0" />
          <path
             id="path8135"
             d="m 482.38517,395.65627 11.7613,-17.06302 424.26407,424.26407 -11.7613,17.06302 z"
             inkscape:connector-curvature="0" />
          <path
             id="path8137"
             d="m 494.14647,378.59325 23.51251,14.25513 424.26407,424.26407 -23.51251,-14.25513 z"
             inkscape:connector-curvature="0" />
          <path
             id="path8139"
             d="m 517.65898,392.84838 c 8.36978,5.07442 13.75062,8.52496 17.076,11.85033 l 424.26407,424.26407 c -3.32538,-3.32537 -8.70622,-6.77591 -17.076,-11.85033 z"
             inkscape:connector-curvature="0" />
          <path
             id="path8141"
             d="m 534.73498,404.69871 c 5.43436,5.43437 5.37932,10.53447 3.90896,21.84136 l 424.26407,424.26407 c 1.47035,-11.30689 1.5254,-16.40699 -3.90896,-21.84136 z"
             inkscape:connector-curvature="0" />
          <path
             id="path8143"
             d="m 538.64394,426.54007 c -2.21593,17.04047 0.46509,23.17103 21.74775,49.72974 L 984.65576,900.53388 C 963.3731,873.97517 960.69208,867.84461 962.90801,850.80414 z"
             inkscape:connector-curvature="0" />
          <path
             id="path8145"
             d="m 560.39169,476.26981 c 7.13187,8.89989 12.33519,15.17962 16.66794,19.51237 l 424.26407,424.26407 c -4.33275,-4.33275 -9.53607,-10.61248 -16.66794,-19.51237 z"
             inkscape:connector-curvature="0" />
          <path
             id="path8147"
             d="m 577.05963,495.78218 c 9.23421,9.23421 14.51412,9.62478 26.08181,7.68859 l 424.26406,424.26407 c -11.5677,1.93619 -16.8476,1.54562 -26.0818,-7.68859 z"
             inkscape:connector-curvature="0" />
          <path
             id="path8149"
             d="m 603.14144,503.47077 c 9.372,-1.56868 14.04437,-2.17217 17.49265,1.27612 l 424.26411,424.26406 c -3.4483,-3.44828 -8.1207,-2.84479 -17.4927,-1.27611 z"
             inkscape:connector-curvature="0" />
          <path
             id="path8151"
             d="m 620.63409,504.74689 c 3.18935,3.18934 5.33154,9.8448 9.17651,22.40852 l 424.2641,424.26407 c -3.845,-12.56373 -5.9872,-19.21918 -9.1765,-22.40853 z"
             inkscape:connector-curvature="0" />
          <path
             id="path8153"
             d="m 629.8106,527.15541 c 10.9699,35.8452 10.55247,39.18572 -6.46423,51.72967 l 424.26403,424.26402 c 17.0167,-12.5439 17.4342,-15.88442 6.4643,-51.72962 z"
             inkscape:connector-curvature="0" />
          <path
             id="path8155"
             d="m 623.34637,578.88508 c -10.70463,7.89098 -14.65893,15.38583 -14.65893,27.78412 l 424.26406,424.2641 c 0,-12.3983 3.9543,-19.8932 14.6589,-27.7842 z"
             inkscape:connector-curvature="0" />
          <path
             id="path8157"
             d="m 608.68744,606.6692 0,16.97822 424.26406,424.26408 0,-16.9782 z"
             inkscape:connector-curvature="0" />
          <path
             id="path8159"
             d="m 608.68744,623.64742 -42.75516,-0.0321 424.26407,424.26408 42.75515,0.032 z"
             inkscape:connector-curvature="0" />
          <path
             id="path8161"
             d="m 565.93228,623.61532 -42.75517,-0.0321 424.26407,424.26408 42.75517,0.032 z"
             inkscape:connector-curvature="0" />
          <path
             id="path8163"
             d="m 523.17711,623.58322 -7.32945,-28.48483 424.26407,424.26411 7.32945,28.4848 z"
             inkscape:connector-curvature="0" />
          <path
             id="path8165"
             d="m 515.84766,595.09839 c -4.97092,-19.3187 -14.04958,-34.91342 -25.46282,-46.32666 L 914.64891,973.0358 c 11.41324,11.41324 20.4919,27.008 25.46282,46.3267 z"
             inkscape:connector-curvature="0" />
          <path
             id="path8167"
             d="m 490.38484,548.77173 c -31.61734,-31.61734 -81.15069,-31.14516 -110.9039,11.14258 l 424.26407,424.26407 c 29.75321,-42.28774 79.28656,-42.75992 110.9039,-11.14258 z"
             inkscape:connector-curvature="0" />
          <path
             id="path8169"
             d="m 379.48094,559.91431 c -8.08364,11.48917 -17.07367,31.90116 -19.97779,45.35999 l 424.26407,424.2641 c 2.90412,-13.4589 11.89415,-33.87085 19.97779,-45.36002 z"
             inkscape:connector-curvature="0" />
          <path
             id="path8171"
             d="m 359.50315,605.2743 -5.28027,24.47062 424.26407,424.26408 5.28027,-24.4706 z"
             inkscape:connector-curvature="0" />
          <path
             id="path8173"
             d="m 354.22288,629.74492 -44.34301,0 424.26407,424.26408 44.34301,0 z"
             inkscape:connector-curvature="0" />
          <path
             id="path8175"
             d="m 309.87987,629.74492 -44.343,0 424.26407,424.26408 44.343,0 z"
             inkscape:connector-curvature="0" />
          <path
             id="path8177"
             d="m 265.53687,629.74492 2.14482,-18.23623 424.26407,424.26411 -2.14482,18.2362 z"
             inkscape:connector-curvature="0" />
          <path
             id="path8179"
             d="m 696.64094,618.05837 c 0,-6.27804 -4.99033,-16.24041 -11.17999,-22.43006 L 1109.725,1019.8924 c 6.1897,6.1896 11.18,16.152 11.18,22.43 z"
             inkscape:connector-curvature="0" />
          <path
             id="path8181"
             d="m 685.46095,595.62831 c -0.14754,-0.14755 -0.29577,-0.29295 -0.44462,-0.4361 l 424.26407,424.26409 c 0.1489,0.1431 0.2971,0.2885 0.4446,0.4361 z"
             inkscape:connector-curvature="0" />
          <path
             id="path8183"
             d="m 685.01633,595.19221 c -0.80915,-0.77817 -1.55994,-1.50912 -2.25398,-2.20316 l 424.26405,424.26405 c 0.6941,0.6941 1.4448,1.425 2.254,2.2032 z"
             inkscape:connector-curvature="0" />
          <path
             id="path8185"
             d="m 682.76235,592.98905 c -8.66299,-8.66299 -8.48496,-11.57562 -2.6183,-28.79361 l 424.26405,424.26407 c -5.8666,17.21799 -6.0447,20.13059 2.6183,28.79359 z"
             inkscape:connector-curvature="0" />
          <path
             id="path8187"
             d="m 680.14405,564.19544 c 5.33491,-15.65738 9.63456,-19.81731 20.48304,-19.81731 L 1124.8912,968.6422 c -10.8485,0 -15.1482,4.15993 -20.4831,19.81731 z"
             inkscape:connector-curvature="0" />
          <path
             id="path8189"
             d="m 700.62709,544.37813 c 17.23512,0 38.64051,-26.92303 40.83397,-51.3597 L 1165.7251,917.2825 c -2.1934,24.43667 -23.5988,51.3597 -40.8339,51.3597 z"
             inkscape:connector-curvature="0" />
          <path
             id="path8191"
             d="m 741.46106,493.01843 c 1.95819,-21.81579 22.22064,-33.63629 33.69931,-22.15762 l 424.26403,424.26407 c -11.4786,-11.47867 -31.7411,0.34182 -33.6993,22.15762 z"
             inkscape:connector-curvature="0" />
          <path
             id="path8193"
             d="m 775.16037,470.86081 c 1.12994,1.12994 2.17477,2.48566 3.10864,4.07984 l 424.26409,424.26407 c -0.9339,-1.59418 -1.9787,-2.9499 -3.1087,-4.07984 z"
             inkscape:connector-curvature="0" />
          <path
             id="path8195"
             d="m 778.26901,474.94065 c 0.83604,1.42716 1.86457,2.73511 3.05282,3.92337 l 424.26407,424.26407 c -1.1883,-1.18826 -2.2168,-2.49622 -3.0528,-3.92337 z"
             inkscape:connector-curvature="0" />
          <path
             id="path8197"
             d="m 781.32183,478.86402 c 12.5689,12.5689 43.00943,11.74474 52.56168,-3.06836 l 424.26409,424.26407 c -9.5523,14.8131 -39.9928,15.63726 -52.5617,3.06836 z"
             inkscape:connector-curvature="0" />
          <path
             id="path8199"
             d="m 833.88351,475.79566 c 7.36347,-11.41899 8.53646,-11.5228 23.20992,-2.0538 l 424.26407,424.26407 c -14.6735,-9.469 -15.8465,-9.36519 -23.2099,2.0538 z"
             inkscape:connector-curvature="0" />
          <path
             id="path8201"
             d="m 857.09343,473.74186 c 3.02321,1.95092 5.58556,3.973 7.70215,6.08959 l 424.26402,424.26407 c -2.1165,-2.11659 -4.6789,-4.13867 -7.7021,-6.08959 z"
             inkscape:connector-curvature="0" />
          <path
             id="path8203"
             d="m 864.79558,479.83145 c 5.24474,5.24474 7.7524,11.06975 7.7524,17.83014 L 1296.812,921.92566 c 0,-6.76039 -2.5076,-12.5854 -7.7524,-17.83014 z"
             inkscape:connector-curvature="0" />
          <path
             id="path8205"
             d="m 872.54798,497.66159 c 0,10.75259 7.81406,24.38789 17.5736,34.14743 l 424.26412,424.26407 c -9.7596,-9.75954 -17.5737,-23.39484 -17.5737,-34.14743 z"
             inkscape:connector-curvature="0" />
          <path
             id="path8207"
             d="m 890.12158,531.80902 c 7.39811,7.39811 15.91413,12.56911 22.99178,12.56911 L 1337.3774,968.6422 c -7.0776,0 -15.5936,-5.171 -22.9917,-12.56911 z"
             inkscape:connector-curvature="0" />
          <path
             id="path8209"
             d="m 913.11336,544.37813 c 5.10117,0 8.73653,1.08133 11.72318,4.06798 l 424.26406,424.26407 c -2.9866,-2.98666 -6.622,-4.06798 -11.7232,-4.06798 z"
             inkscape:connector-curvature="0" />
          <path
             id="path8211"
             d="m 924.83654,548.44611 c 3.01617,3.01616 5.37074,7.9755 7.90528,15.72668 l 424.26408,424.26407 c -2.5346,-7.75118 -4.8891,-12.71052 -7.9053,-15.72668 z"
             inkscape:connector-curvature="0" />
          <path
             id="path8213"
             d="m 932.74182,564.17279 c 5.99938,18.34785 5.64323,20.60867 -4.87232,30.93078 l 424.2641,424.26403 c 10.5155,-10.3221 10.8717,-12.5829 4.8723,-30.93074 z"
             inkscape:connector-curvature="0" />
          <path
             id="path8215"
             d="m 927.8695,595.10357 c -6.23967,6.12483 -11.3448,15.05281 -11.3448,19.83995 l 424.2641,424.26408 c 0,-4.7872 5.1051,-13.7151 11.3448,-19.84 z"
             inkscape:connector-curvature="0" />
          <path
             id="path8217"
             d="m 916.5247,614.94352 c 0,6.44832 -6.73,8.7039 -25.96971,8.7039 l 424.26411,424.26408 c 19.2397,0 25.9697,-2.2556 25.9697,-8.7039 z"
             inkscape:connector-curvature="0" />
          <path
             id="path8219"
             d="m 890.55499,623.64742 c -14.7226,0 -21.24518,-0.33449 -25.72185,-4.81115 l 424.26406,424.26403 c 4.4767,4.4767 10.9993,4.8112 25.7219,4.8112 z"
             inkscape:connector-curvature="0" />
          <path
             id="path8221"
             d="m 864.83314,618.83627 c -3.06375,-3.06375 -5.16923,-8.0676 -8.28915,-16.23211 l 424.26411,424.26404 c 3.1199,8.1645 5.2254,13.1684 8.2891,16.2321 z"
             inkscape:connector-curvature="0" />
          <path
             id="path8223"
             d="m 856.54399,602.60416 c -4.44016,-11.61938 -10.3828,-20.82532 -17.19655,-27.63907 l 424.26406,424.26407 c 6.8138,6.81374 12.7564,16.01964 17.1966,27.63904 z"
             inkscape:connector-curvature="0" />
          <path
             id="path8225"
             d="m 839.34744,574.96509 c -27.12416,-27.12416 -68.05264,-16.33996 -82.9578,31.0115 l 424.26406,424.26411 c 14.9052,-47.3515 55.8337,-58.1357 82.9578,-31.01154 z"
             inkscape:connector-curvature="0" />
          <path
             id="path8227"
             d="m 756.38964,605.97659 c -7.39711,23.49965 -7.77732,23.76847 -33.61522,23.76847 l 424.26408,424.26404 c 25.8379,0 26.2181,-0.2688 33.6152,-23.7684 z"
             inkscape:connector-curvature="0" />
          <path
             id="path8229"
             d="m 722.77442,629.74506 c -14.19085,0 -20.87723,-0.6471 -23.88013,-3.65001 l 424.26411,424.26405 c 3.0029,3.0029 9.6892,3.65 23.8801,3.65 z"
             inkscape:connector-curvature="0" />
          <path
             id="path8231"
             d="m 698.89429,626.09505 c -1.75763,-1.75762 -2.25335,-4.32231 -2.25335,-8.03668 L 1120.905,1042.3224 c 0,3.7144 0.4957,6.2791 2.2534,8.0367 z"
             inkscape:connector-curvature="0" />
          <path
             id="path8233"
             d="m 76.080162,541.32929 c 0,-65.6108 0.617013,-70.12285 9.589246,-70.12285 L 509.93348,895.47051 c -8.97224,0 -9.58925,4.51205 -9.58925,70.12285 z"
             inkscape:connector-curvature="0" />
          <path
             id="path8235"
             d="m 85.669408,471.20644 c 2.238902,0 3.968268,0.32975 5.323762,1.68525 l 424.26407,424.26407 c -1.35549,-1.3555 -3.08486,-1.68525 -5.32376,-1.68525 z"
             inkscape:connector-curvature="0" />
          <path
             id="path8237"
             d="m 90.99317,472.89169 c 3.93338,3.93338 4.718573,16.50397 5.670426,54.71791 L 520.92766,951.87367 c -0.95185,-38.21394 -1.73704,-50.78453 -5.67042,-54.71791 z"
             inkscape:connector-curvature="0" />
          <path
             id="path8239"
             d="m 96.663596,527.6096 1.40495,56.40318 424.264064,424.26402 -1.40495,-56.40313 z"
             inkscape:connector-curvature="0" />
          <path
             id="path8241"
             d="m 98.068546,584.01278 18.323634,1.89248 424.26407,424.26404 -18.32364,-1.8925 z"
             inkscape:connector-curvature="0" />
          <path
             id="path8243"
             d="m 116.39218,585.90526 18.32364,1.89249 424.26407,424.26405 -18.32364,-1.8925 z"
             inkscape:connector-curvature="0" />
          <path
             id="path8245"
             d="m 134.71582,587.79775 0,-49.14918 424.26407,424.26407 0,49.14916 z"
             inkscape:connector-curvature="0" />
          <path
             id="path8247"
             d="m 134.71582,538.64857 c 0,-45.08413 0.80829,-49.14921 9.77261,-49.14921 L 568.7525,913.76343 c -8.96432,0 -9.77261,4.06508 -9.77261,49.14921 z"
             inkscape:connector-curvature="0" />
          <path
             id="path8249"
             d="m 144.48843,489.49936 c 2.46601,0 4.31481,0.30763 5.69937,1.69218 l 424.26406,424.26407 c -1.38455,-1.38455 -3.23335,-1.69218 -5.69936,-1.69218 z"
             inkscape:connector-curvature="0" />
          <path
             id="path8251"
             d="m 150.1878,491.19154 c 3.6485,3.6485 4.07324,14.77518 4.07324,47.45703 l 424.26407,424.26407 c 0,-32.68186 -0.42475,-43.80853 -4.07325,-47.45703 z"
             inkscape:connector-curvature="0" />
          <path
             id="path8253"
             d="m 154.26104,538.64857 0,49.14918 424.26407,424.26405 0,-49.14916 z"
             inkscape:connector-curvature="0" />
          <path
             id="path8255"
             d="m 154.26104,587.79775 18.32365,-1.89249 424.26407,424.26404 -18.32365,1.8925 z"
             inkscape:connector-curvature="0" />
          <path
             id="path8257"
             d="m 172.58469,585.90526 18.32365,-1.89248 424.26407,424.26402 -18.32365,1.8925 z"
             inkscape:connector-curvature="0" />
          <path
             id="path8259"
             d="m 190.90834,584.01278 1.40494,-56.40318 424.26407,424.26407 -1.40494,56.40313 z"
             inkscape:connector-curvature="0" />
          <path
             id="path8261"
             d="m 192.31328,527.6096 c 1.27988,-51.38296 2.25842,-56.40316 10.99418,-56.40316 l 424.26407,424.26407 c -8.73576,0 -9.7143,5.0202 -10.99418,56.40316 z"
             inkscape:connector-curvature="0" />
          <path
             id="path8263"
             d="m 203.30746,471.20644 c 2.1501,0 3.82039,0.25911 5.11735,1.55608 l 424.26407,424.26406 c -1.29696,-1.29696 -2.96725,-1.55607 -5.11735,-1.55607 z"
             inkscape:connector-curvature="0" />
          <path
             id="path8265"
             d="m 208.42481,472.76252 c 4.11518,4.11517 4.4719,18.67891 4.4719,68.56677 l 424.26407,424.26407 c 0,-49.88787 -0.35672,-64.4516 -4.4719,-68.56678 z"
             inkscape:connector-curvature="0" />
          <path
             id="path8267"
             d="m 212.89671,541.32929 0,70.12285 424.26407,424.26406 0,-70.12284 z"
             inkscape:connector-curvature="0" />
          <path
             id="path8269"
             d="m 212.89671,611.45214 -68.40828,0 424.26407,424.26406 68.40828,0 z"
             inkscape:connector-curvature="0" />
          <path
             id="path8271"
             d="m 144.48843,611.45214 -68.408268,0 424.264068,424.26406 68.40827,0 z"
             inkscape:connector-curvature="0" />
          <path
             id="path8273"
             d="m 76.080162,611.45214 0,-70.12285 424.264068,424.26407 0,70.12284 z"
             inkscape:connector-curvature="0" />
          <path
             id="path8275"
             d="m 641.67,509.36522 c -1.93339,-0.55782 -3.72228,-1.68219 -5.15873,-3.11864 l 424.26403,424.26407 c 1.4365,1.43645 3.2254,2.56082 5.1588,3.11864 z"
             inkscape:connector-curvature="0" />
          <path
             id="path8277"
             d="m 636.51127,506.24658 c -2.05778,-2.05778 -3.3923,-4.75601 -3.3923,-7.34657 L 1057.383,923.16408 c 0,2.59056 1.3346,5.28879 3.3923,7.34657 z"
             inkscape:connector-curvature="0" />
          <path
             id="path8279"
             d="m 633.11897,498.90001 c 0,-4.06042 -3.28627,-9.21143 -8.04163,-13.96679 l 424.26406,424.26407 c 4.7554,4.75536 8.0416,9.90637 8.0416,13.96679 z"
             inkscape:connector-curvature="0" />
          <path
             id="path8281"
             d="m 625.07734,484.93322 c -7.33391,-7.33391 -18.16207,-13.72678 -25.81866,-13.72678 l 424.26402,424.26407 c 7.6566,0 18.4848,6.39287 25.8187,13.72678 z"
             inkscape:connector-curvature="0" />
          <path
             id="path8283"
             d="m 599.25868,471.20644 c -3.39609,0 -6.84421,-1.98509 -9.77573,-4.91661 L 1013.747,890.5539 c 2.9315,2.93152 6.3797,4.91661 9.7757,4.91661 z"
             inkscape:connector-curvature="0" />
          <path
             id="path8285"
             d="m 589.48295,466.28983 c -6.69019,-6.69019 -10.68981,-18.30961 -5.24023,-22.51257 l 424.26408,424.26407 c -5.4496,4.20296 -1.45,15.82238 5.2402,22.51257 z"
             inkscape:connector-curvature="0" />
          <path
             id="path8287"
             d="m 584.24272,443.77726 c 7.01068,-5.40699 6.00002,-29.48213 -0.6923,-36.17445 l 424.26408,424.26407 c 6.6923,6.69232 7.703,30.76746 0.6923,36.17445 z"
             inkscape:connector-curvature="0" />
          <path
             id="path8289"
             d="m 583.55042,407.60281 c -0.54232,-0.54232 -1.12195,-0.97049 -1.73765,-1.26532 l 424.26403,424.26407 c 0.6157,0.29483 1.1954,0.723 1.7377,1.26532 z"
             inkscape:connector-curvature="0" />
          <path
             id="path8291"
             d="m 581.81277,406.33749 c -1.29734,-0.62125 -2.41323,-1.41577 -3.35339,-2.35593 l 424.26402,424.26407 c 0.9402,0.94016 2.0561,1.73467 3.3534,2.35593 z"
             inkscape:connector-curvature="0" />
          <path
             id="path8293"
             d="m 578.45938,403.98156 c -8.27111,-8.27111 -2.94118,-27.81438 12.09265,-39.82149 l 424.26407,424.26407 c -15.03383,12.00711 -20.36376,31.55038 -12.0927,39.82149 z"
             inkscape:connector-curvature="0" />
          <path
             id="path8295"
             d="m 590.55203,364.16007 c 11.43166,-9.13015 15.4763,-16.68605 14.89682,-27.82913 l 424.26405,424.26407 c 0.5795,11.14308 -3.4651,18.69898 -14.8968,27.82913 z"
             inkscape:connector-curvature="0" />
          <path
             id="path8297"
             d="m 605.44885,336.33094 c -0.91646,-17.62378 14.802,-33.79481 23.53538,-25.06142 l 424.26407,424.26407 c -8.7334,-8.73339 -24.4518,7.43764 -23.5354,25.06142 z"
             inkscape:connector-curvature="0" />
          <path
             id="path8299"
             d="m 628.98423,311.26952 c 0.27441,0.2744 0.54192,0.57339 0.8018,0.8977 l 424.26407,424.26407 c -0.2599,-0.32431 -0.5274,-0.6233 -0.8018,-0.8977 z"
             inkscape:connector-curvature="0" />
          <path
             id="path8301"
             d="m 629.78603,312.16722 c 0.39175,0.48887 0.80423,0.94892 1.23561,1.3803 l 424.26406,424.26407 c -0.4314,-0.43139 -0.8438,-0.89143 -1.2356,-1.3803 z"
             inkscape:connector-curvature="0" />
          <path
             id="path8303"
             d="m 631.02164,313.54752 c 7.99826,7.99826 22.49591,6.14437 31.90184,-4.47811 l 424.26402,424.26407 c -9.4059,10.62248 -23.9035,12.47637 -31.9018,4.47811 z"
             inkscape:connector-curvature="0" />
          <path
             id="path8305"
             d="m 662.92348,309.06941 c 7.13705,-8.06015 19.51174,-7.83225 25.45482,-1.88916 l 424.2641,424.26406 c -5.9431,-5.94308 -18.3178,-6.17099 -25.4549,1.88917 z"
             inkscape:connector-curvature="0" />
          <path
             id="path8307"
             d="m 688.3783,307.18025 c 2.08333,2.08332 3.37632,4.86894 3.37632,8.24603 l 424.26408,424.26407 c 0,-3.37709 -1.293,-6.16271 -3.3763,-8.24604 z"
             inkscape:connector-curvature="0" />
          <path
             id="path8309"
             d="m 691.75462,315.42628 c 0,4.21026 3.22741,9.32164 7.71261,13.80684 l 424.26407,424.26407 c -4.4852,-4.4852 -7.7126,-9.59658 -7.7126,-13.80684 z"
             inkscape:connector-curvature="0" />
          <path
             id="path8311"
             d="m 699.46723,329.23312 c 7.30613,7.30614 17.94977,12.95075 23.41762,10.3324 l 424.26405,424.26407 c -5.4678,2.61835 -16.1115,-3.02626 -23.4176,-10.3324 z"
             inkscape:connector-curvature="0" />
          <path
             id="path8313"
             d="m 722.88485,339.56552 c 2.81495,-1.34798 5.75774,-0.17573 8.32886,2.39539 l 424.26409,424.26407 c -2.5711,-2.57112 -5.5139,-3.74337 -8.3289,-2.39539 z"
             inkscape:connector-curvature="0" />
          <path
             id="path8315"
             d="m 731.21371,341.96091 c 6.25612,6.25613 10.31167,20.79438 4.97034,27.45983 l 424.26405,424.26407 c 5.3414,-6.66545 1.2858,-21.20371 -4.9703,-27.45983 z"
             inkscape:connector-curvature="0" />
          <path
             id="path8317"
             d="m 736.18405,369.42074 c -7.64353,9.53842 -6.55446,25.52362 1.8319,33.90998 L 1162.28,827.59479 c -8.3863,-8.38636 -9.4754,-24.37157 -1.8319,-33.90998 z"
             inkscape:connector-curvature="0" />
          <path
             id="path8319"
             d="m 738.01595,403.33072 c 0.56553,0.56553 1.16424,1.0965 1.79569,1.58861 L 1164.0757,829.1834 c -0.6314,-0.49211 -1.2302,-1.02308 -1.7957,-1.58861 z"
             inkscape:connector-curvature="0" />
          <path
             id="path8321"
             d="m 739.81164,404.91933 c 0.39951,0.31135 0.78106,0.65017 1.14482,1.01393 l 424.26404,424.26407 c -0.3637,-0.36376 -0.7453,-0.70258 -1.1448,-1.01393 z"
             inkscape:connector-curvature="0" />
          <path
             id="path8323"
             d="m 740.95646,405.93326 c 9.27806,9.27806 6.98682,34.78499 -3.78988,34.78499 l 424.26402,424.26407 c 10.7768,0 13.068,-25.50693 3.7899,-34.78499 z"
             inkscape:connector-curvature="0" />
          <path
             id="path8325"
             d="m 737.16658,440.71825 c -10.11973,0 -25.92159,25.47459 -23.10576,37.24937 l 424.26408,424.26407 c -2.8158,-11.77478 12.986,-37.24937 23.1057,-37.24937 z"
             inkscape:connector-curvature="0" />
          <path
             id="path8327"
             d="m 714.06082,477.96762 c 3.57037,14.9299 -11.18676,27.71016 -22.1399,19.17406 L 1116.185,921.40575 c 10.9531,8.5361 25.7103,-4.24416 22.1399,-19.17406 z"
             inkscape:connector-curvature="0" />
          <path
             id="path8329"
             d="m 691.92092,497.14168 c -9.65692,-7.52589 -29.11428,-3.49254 -36.81358,7.63117 l 424.26406,424.26407 c 7.6993,-11.12371 27.1567,-15.15706 36.8136,-7.63117 z"
             inkscape:connector-curvature="0" />
          <path
             id="path8331"
             d="m 655.10734,504.77285 c -2.68747,3.88274 -8.73427,5.94932 -13.43734,4.59237 l 424.2641,424.26407 c 4.703,1.35695 10.7498,-0.70963 13.4373,-4.59237 z"
             inkscape:connector-curvature="0" />
          <path
             id="path8333"
             d="m 688.55351,427.01083 c 10.86118,-18.23412 8.19391,-39.57882 -5.8694,-53.64214 l 424.26409,424.26407 c 14.0633,14.06331 16.7306,35.40802 5.8694,53.64214 z"
             inkscape:connector-curvature="0" />
          <path
             id="path8335"
             d="m 682.68411,373.36869 c -1.86847,-1.86847 -3.93811,-3.60841 -6.20392,-5.19545 l 424.26411,424.26407 c 2.2658,1.58704 4.3354,3.32698 6.2039,5.19545 z"
             inkscape:connector-curvature="0" />
          <path
             id="path8337"
             d="m 676.48019,368.17324 c -25.76622,-18.04743 -58.22683,17.36205 -47.88814,52.23853 l 424.26405,424.26407 c -10.3387,-34.87648 22.1219,-70.28596 47.8882,-52.23853 z"
             inkscape:connector-curvature="0" />
          <path
             id="path8339"
             d="m 628.59205,420.41177 c 2.03124,6.8522 5.34334,12.3563 9.44531,16.45828 l 424.26404,424.26407 c -4.1019,-4.10198 -7.414,-9.60608 -9.4453,-16.45828 z"
             inkscape:connector-curvature="0" />
          <path
             id="path8341"
             d="m 638.03736,436.87005 c 14.15823,14.15823 37.72653,11.61245 50.51615,-9.85922 L 1112.8176,851.2749 c -12.7896,21.47167 -36.3579,24.01745 -50.5162,9.85922 z"
             inkscape:connector-curvature="0" />
          <path
             id="path8343"
             d="m 76.080162,376.69304 c 0,-52.84621 1.279753,-64.02519 7.329465,-64.02519 L 507.6737,736.93192 c -6.04972,0 -7.32947,11.17898 -7.32947,64.02519 z"
             inkscape:connector-curvature="0" />
          <path
             id="path8345"
             d="m 83.409627,312.66785 c 4.031192,0 7.329454,-2.74396 7.329454,-6.09764 L 515.00315,730.83428 c 0,3.35368 -3.29826,6.09764 -7.32945,6.09764 z"
             inkscape:connector-curvature="0" />
          <path
             id="path8347"
             d="m 90.739081,306.57021 c 0,-3.69554 21.173979,-6.09764 53.749349,-6.09764 L 568.7525,724.73664 c -32.57537,0 -53.74935,2.4021 -53.74935,6.09764 z"
             inkscape:connector-curvature="0" />
          <path
             id="path8349"
             d="m 144.48843,300.47257 c 29.85242,0 50.12987,2.0173 53.31124,5.19868 l 424.26407,424.26407 c -3.18138,-3.18138 -23.45882,-5.19868 -53.31124,-5.19868 z"
             inkscape:connector-curvature="0" />
          <path
             id="path8351"
             d="m 197.79967,305.67125 c 0.29018,0.29018 0.43813,0.59005 0.43813,0.89896 l 424.26407,424.26407 c 0,-0.30891 -0.14795,-0.60878 -0.43813,-0.89896 z"
             inkscape:connector-curvature="0" />
          <path
             id="path8353"
             d="m 198.2378,306.57021 c 0,1.47477 0.63781,2.83164 1.69528,3.88911 l 424.26406,424.26407 c -1.05746,-1.05747 -1.69527,-2.41434 -1.69527,-3.88911 z"
             inkscape:connector-curvature="0" />
          <path
             id="path8355"
             d="m 199.93308,310.45932 c 1.34725,1.34725 3.37567,2.20853 5.63417,2.20853 l 424.26407,424.26407 c -2.2585,0 -4.28693,-0.86128 -5.63418,-2.20853 z"
             inkscape:connector-curvature="0" />
          <path
             id="path8357"
             d="m 205.56725,312.66785 c 1.00583,0 1.87981,0.30902 2.63798,1.06718 L 632.4693,737.9991 c -0.75817,-0.75816 -1.63215,-1.06718 -2.63798,-1.06718 z"
             inkscape:connector-curvature="0" />
          <path
             id="path8359"
             d="m 208.20523,313.73503 c 3.80189,3.8019 4.69148,18.89811 4.69148,62.95801 l 424.26407,424.26407 c 0,-44.0599 -0.88959,-59.15611 -4.69148,-62.95801 z"
             inkscape:connector-curvature="0" />
          <path
             id="path8361"
             d="m 212.89671,376.69304 0,64.02521 424.26407,424.26407 0,-64.02521 z"
             inkscape:connector-curvature="0" />
          <path
             id="path8363"
             d="m 212.89671,440.71825 -68.40828,0 424.26407,424.26407 68.40828,0 z"
             inkscape:connector-curvature="0" />
          <path
             id="path8365"
             d="m 144.48843,440.71825 -68.408268,0 424.264068,424.26407 68.40827,0 z"
             inkscape:connector-curvature="0" />
          <path
             id="path8367"
             d="m 76.080162,440.71825 0,-64.02521 424.264068,424.26407 0,64.02521 z"
             inkscape:connector-curvature="0" />
          <path
             id="path8369"
             d="m 134.71582,370.22734 0,-46.10038 424.26407,424.26407 0,46.10038 z"
             inkscape:connector-curvature="0" />
          <path
             id="path8371"
             d="m 134.71582,324.12696 -18.32364,1.89249 424.26407,424.26407 18.32364,-1.89249 z"
             inkscape:connector-curvature="0" />
          <path
             id="path8373"
             d="M 116.39218,326.01945 98.068546,327.91193 522.33261,752.176 540.65625,750.28352 z"
             inkscape:connector-curvature="0" />
          <path
             id="path8375"
             d="M 98.068546,327.91193 96.582996,363.815 520.84706,788.07907 522.33261,752.176 z"
             inkscape:connector-curvature="0" />
          <path
             id="path8377"
             d="m 96.582996,363.815 c -1.229742,29.72067 -0.840393,42.83653 4.795994,48.47291 l 424.26407,424.26407 c -5.63639,-5.63638 -6.02574,-18.75224 -4.796,-48.47291 z"
             inkscape:connector-curvature="0" />
          <path
             id="path8379"
             d="m 101.37899,412.28791 c 3.30828,3.30828 8.42421,4.0398 16.08142,4.0398 l 424.26407,424.26407 c -7.65721,0 -12.77315,-0.73152 -16.08142,-4.0398 z"
             inkscape:connector-curvature="0" />
          <path
             id="path8381"
             d="m 117.46041,416.32771 17.25541,0 424.26407,424.26407 -17.25541,0 z"
             inkscape:connector-curvature="0" />
          <path
             id="path8383"
             d="m 134.71582,416.32771 0,-46.10037 424.26407,424.26407 0,46.10037 z"
             inkscape:connector-curvature="0" />
          <path
             id="path8385"
             d="m 190.90834,370.5954 0,-42.68347 424.26407,424.26407 0,42.68347 z"
             inkscape:connector-curvature="0" />
          <path
             id="path8387"
             d="m 190.90834,327.91193 -18.32365,-1.89248 424.26407,424.26407 18.32365,1.89248 z"
             inkscape:connector-curvature="0" />
          <path
             id="path8389"
             d="m 172.58469,326.01945 -18.32365,-1.89249 424.26407,424.26407 18.32365,1.89249 z"
             inkscape:connector-curvature="0" />
          <path
             id="path8391"
             d="m 154.26104,324.12696 0,46.46844 424.26407,424.26407 0,-46.46844 z"
             inkscape:connector-curvature="0" />
          <path
             id="path8393"
             d="m 154.26104,370.5954 0,46.46847 424.26407,424.26407 0,-46.46847 z"
             inkscape:connector-curvature="0" />
          <path
             id="path8395"
             d="m 154.26104,417.06387 18.32365,-1.89249 424.26407,424.26407 -18.32365,1.89249 z"
             inkscape:connector-curvature="0" />
          <path
             id="path8397"
             d="m 172.58469,415.17138 18.32365,-1.89251 424.26407,424.26407 -18.32365,1.89251 z"
             inkscape:connector-curvature="0" />
          <path
             id="path8399"
             d="m 190.90834,413.27887 0,-42.68347 424.26407,424.26407 0,42.68347 z"
             inkscape:connector-curvature="0" />
        </g>
        <path
           inkscape:connector-curvature="0"
           id="path7766"
           d="m 76.080162,769.99075 c 0,-11.33947 3.257527,-12.19528 46.419908,-12.19528 46.25701,0 46.41988,-0.0536 46.41988,-15.2441 0,-14.00198 -1.79162,-15.24409 -21.98836,-15.24409 -18.73082,0 -21.98837,-1.80671 -21.98837,-12.19529 0,-10.38856 3.25755,-12.19527 21.98837,-12.19527 20.19674,0 21.98836,-1.24211 21.98836,-15.24409 0,-15.19062 -0.16287,-15.24411 -46.41988,-15.24411 -43.162381,0 -46.419908,-0.8558 -46.419908,-12.19527 0,-11.40434 3.257527,-12.19526 50.227508,-12.19526 44.62207,0 51.01359,1.36099 57.27121,12.19526 3.87403,6.70741 12.05538,12.19527 18.18077,12.19527 7.87952,0 11.13706,3.56705 11.13706,12.19528 0,8.94321 -3.25754,12.19528 -12.21576,12.19528 -10.31554,0 -12.21577,2.84557 -12.21577,18.29291 0,15.44736 1.90023,18.29293 12.21577,18.29293 7.60092,0 12.21576,3.45532 12.21576,9.14645 0,5.03056 -4.08968,9.14647 -9.08818,9.14647 -4.99849,0 -13.21632,6.85983 -18.26181,15.24409 -8.7418,14.52645 -11.5344,15.2441 -59.32012,15.2441 -46.888911,0 -50.146438,-0.79222 -50.146438,-12.19528 z m 166.134388,-61.82932 0,-61.82931 16.77394,22.19466 c 18.85232,24.9447 25.00447,26.8901 36.4429,11.5238 4.36878,-5.86898 12.87233,-15.89803 18.89678,-22.2868 l 10.95355,-11.61591 0,61.92143 c 0,50.97619 -1.29555,61.92145 -7.32944,61.92145 -5.7007,0 -7.32947,-8.13018 -7.32947,-36.58583 0,-28.24647 -1.64944,-36.58584 -7.23636,-36.58584 -3.98,0 -8.61605,6.85985 -10.30232,15.2441 -2.96885,14.76125 -16.66545,21.92036 -16.66545,8.7109 0,-6.85632 -11.95805,-23.955 -16.75305,-23.955 -1.53569,0 -2.79219,16.46363 -2.79219,36.58584 0,28.45565 -1.62875,36.58583 -7.32944,36.58583 -6.03318,0 -7.32945,-10.93501 -7.32945,-61.82932 z m 105.57834,52.18416 c -1.63127,-5.30485 -2.96593,-28.4039 -2.96593,-51.33123 0,-59.94337 0.61314,-60.97637 36.1928,-60.97637 17.02122,0 32.82636,3.20139 36.1245,7.31716 3.53185,4.4074 5.86357,25.74556 5.86357,53.65921 0,27.91363 -2.33172,49.25181 -5.86357,53.65922 -9.20607,11.48829 -65.68581,9.59235 -69.35137,-2.32799 z m 60.55603,-51.33123 0,-42.68347 -26.87468,0 -26.87469,0 0,42.68347 0,42.68348 26.87469,0 26.87468,0 0,-42.68348 z m 34.20413,-0.94506 0,-61.92143 10.56517,11.61591 c 5.81085,6.38877 19.28393,23.27766 29.94016,37.53089 10.65624,14.25324 21.29378,25.91496 23.63897,25.91496 2.34519,0 4.26399,-16.46362 4.26399,-36.58583 0,-28.45565 1.62876,-36.58581 7.32945,-36.58581 6.03543,0 7.32946,10.967 7.32946,62.11719 l 0,62.1172 -15.30634,-17.90932 c -8.4185,-9.85014 -22.38336,-26.82712 -31.03303,-37.72667 -8.64966,-10.89951 -17.15367,-19.81731 -18.89778,-19.81731 -1.74413,0 -3.17113,16.46363 -3.17113,36.58584 0,28.45565 -1.62876,36.58583 -7.32945,36.58583 -6.03392,0 -7.32947,-10.94526 -7.32947,-61.92145 z m 102.61242,52.77499 c 0,-7.26728 7.09405,-9.14645 34.52869,-9.14645 l 34.52869,0 -1.54612,-16.76853 C 611.17956,718.69204 610.0857,718.1037 578.14804,716.3578 l -32.98257,-1.80301 0,-25.94124 c 0,-14.26768 2.63862,-29.23397 5.86357,-33.2584 3.41084,-4.25641 19.76237,-7.31716 39.09045,-7.31716 26.27747,0 33.22688,1.91297 33.22688,9.14644 0,7.19209 -6.78656,9.14646 -31.76099,9.14646 l -31.761,0 0,18.00196 c 0,17.82364 0.30247,18.01992 30.53943,19.81732 29.59913,1.75948 30.58876,2.35433 32.14249,19.32064 0.88173,9.6279 0.29025,24.03358 -1.31465,32.01262 -2.74753,13.6607 -5.05103,14.50732 -39.47197,14.50732 -29.23508,0 -36.55421,-1.83136 -36.55421,-9.14646 z m 131.93025,-42.68347 0,-51.82993 -17.10206,0 c -11.94429,0 -17.10208,-2.75846 -17.10208,-9.14646 0,-7.41281 7.87239,-9.14644 41.53359,-9.14644 33.66122,0 41.53358,1.73363 41.53358,9.14644 0,6.388 -5.15778,9.14646 -17.10205,9.14646 l -17.10208,0 0,51.82993 c 0,42.00596 -1.38921,51.82993 -7.32945,51.82993 -5.94023,0 -7.32945,-9.82397 -7.32945,-51.82993 z m 68.40827,-9.14646 0,-60.97637 41.53357,0 c 33.66125,0 41.53367,1.73363 41.53367,9.14644 0,7.2591 -7.05803,9.14646 -34.20414,9.14646 l -34.20418,0 0,18.29291 c 0,18.29292 0,18.29292 29.31783,18.29292 16.28762,0 29.31778,2.71007 29.31778,6.09764 0,3.38759 -13.03016,6.09763 -29.31778,6.09763 -29.31783,0 -29.31783,0 -29.31783,18.29293 l 0,18.29292 34.20418,0 c 27.14611,0 34.20414,1.88736 34.20414,9.14645 0,7.41282 -7.87242,9.14646 -41.53367,9.14646 l -41.53357,0 0,-60.97639 z m 102.61243,0 0,-60.97637 36.12453,0 c 39.69141,0 42.05637,2.22874 42.05637,39.63464 0,28.24317 -4.36348,39.63465 -15.18174,39.63465 -12.31221,0 -11.69863,3.59621 3.94519,23.11804 11.11431,13.86967 11.88614,16.78061 4.89454,18.46088 -4.65211,1.11802 -15.5376,-7.58124 -24.76608,-19.79206 -21.59375,-28.57192 -32.41396,-28.72049 -32.41396,-0.44513 0,14.90533 -2.21046,21.34174 -7.32943,21.34174 -6.02637,0 -7.32942,-10.84025 -7.32942,-60.97639 z m 68.40828,-21.34173 0,-21.34174 -26.87471,0 -26.87472,0 0,21.34174 0,21.34173 26.87472,0 26.87471,0 0,-21.34173 z M 267.68169,611.5088 c 1.79492,-15.26128 -0.50054,-20.48362 -14.07095,-32.0126 -8.91864,-7.577 -16.23075,-15.60682 -16.24911,-17.84405 -0.0185,-2.23725 4.40774,-16.99692 9.8358,-32.79932 9.72196,-28.30303 10.15165,-28.68432 28.80558,-25.56203 17.51826,2.93217 20.6603,0.98542 41.9556,-25.99474 21.51769,-27.26193 22.81386,-30.69869 19.87131,-52.68836 l -3.14784,-23.52411 26.18713,-12.73077 26.18713,-12.73078 9.96533,18.97098 c 9.51177,18.10752 11.41356,18.95176 41.78376,18.54862 28.57725,-0.37932 33.01649,-2.16047 43.57974,-17.48537 l 11.7613,-17.06302 23.51251,14.25513 c 22.04778,13.3671 23.35505,15.46594 20.98496,33.69169 -2.21593,17.04047 0.46509,23.17103 21.74775,49.72974 22.3317,27.86781 25.75441,30.04563 42.74975,27.20096 18.04024,-3.01956 18.66706,-2.46284 26.66916,23.68464 10.9699,35.8452 10.55247,39.18572 -6.46423,51.72967 -10.70463,7.89098 -14.65893,15.38583 -14.65893,27.78412 l 0,16.97822 -42.75516,-0.0321 -42.75517,-0.0321 -7.32945,-28.48483 c -18.74154,-72.83604 -95.87319,-92.73686 -136.36672,-35.18408 -8.08364,11.48917 -17.07367,31.90116 -19.97779,45.35999 l -5.28027,24.47062 -44.34301,0 -44.343,0 2.14482,-18.23623 z m 428.95925,6.54957 c 0,-6.42769 -5.23108,-16.71745 -11.62461,-22.86616 -10.90898,-10.49127 -11.20895,-12.39935 -4.87228,-30.99677 5.33491,-15.65738 9.63456,-19.81731 20.48304,-19.81731 17.23512,0 38.64051,-26.92303 40.83397,-51.3597 2.15095,-23.96331 26.38722,-35.86662 36.80795,-18.07778 9.67938,16.52307 45.15919,17.06853 55.6145,0.85501 7.36347,-11.41899 8.53646,-11.5228 23.20992,-2.0538 10.51449,6.78515 15.45455,14.43109 15.45455,23.91973 0,18.90347 24.15093,46.71654 40.56538,46.71654 10.25274,0 14.58418,4.36815 19.62846,19.79466 5.99938,18.34785 5.64323,20.60867 -4.87232,30.93078 -6.23967,6.12483 -11.3448,15.05281 -11.3448,19.83995 0,6.44832 -6.73,8.7039 -25.96971,8.7039 -24.79848,0 -26.33234,-0.94899 -34.011,-21.04326 -22.11555,-57.87378 -81.50493,-55.874 -100.15435,3.37243 -7.39711,23.49965 -7.77732,23.76847 -33.61522,23.76847 -22.49685,0 -26.13348,-1.62629 -26.13348,-11.68669 z M 76.080162,541.32929 c 0,-65.6108 0.617013,-70.12285 9.589246,-70.12285 8.735758,0 9.714314,5.0202 10.994188,56.40316 l 1.40495,56.40318 18.323634,1.89248 18.32364,1.89249 0,-49.14918 c 0,-45.08413 0.80829,-49.14921 9.77261,-49.14921 8.96433,0 9.77261,4.06508 9.77261,49.14921 l 0,49.14918 18.32365,-1.89249 18.32365,-1.89248 1.40494,-56.40318 c 1.27988,-51.38296 2.25842,-56.40316 10.99418,-56.40316 8.97224,0 9.58925,4.51205 9.58925,70.12285 l 0,70.12285 -68.40828,0 -68.408268,0 0,-70.12285 z M 641.67,509.36522 c -4.70306,-1.35692 -8.55103,-6.06628 -8.55103,-10.46521 0,-10.32257 -21.23912,-27.69357 -33.86029,-27.69357 -11.14653,0 -22.85344,-21.38456 -15.01596,-27.42918 7.5788,-5.84515 5.78354,-33.50664 -2.42995,-37.43977 -12.7108,-6.08678 -8.00343,-28.80549 8.73926,-42.17742 11.43166,-9.13015 15.4763,-16.68605 14.89682,-27.82913 -0.94526,-18.17752 15.80618,-34.80957 24.33718,-24.16372 7.65521,9.55303 23.22421,8.09759 33.13745,-3.09781 9.63892,-10.88561 28.83114,-6.65401 28.83114,6.35687 0,11.06854 22.3057,28.36498 31.13023,24.13924 9.66438,-4.62794 20.83569,20.45043 13.2992,29.85522 -8.15896,10.18163 -6.36787,27.70883 3.62759,35.49859 10.5895,8.2527 8.55416,35.79892 -2.64506,35.79892 -10.11973,0 -25.92159,25.47459 -23.10576,37.24937 3.57037,14.9299 -11.18676,27.71016 -22.1399,19.17406 -9.65692,-7.52589 -29.11428,-3.49254 -36.81358,7.63117 -2.68747,3.88274 -8.73427,5.94932 -13.43734,4.59237 z m 46.88351,-82.35439 c 12.30421,-20.65674 7.24635,-45.30552 -12.07332,-58.83759 -25.76622,-18.04743 -58.22683,17.36205 -47.88814,52.23853 9.0422,30.50302 43.46638,34.29158 59.96146,6.59906 z M 76.080162,376.69304 c 0,-52.84621 1.279753,-64.02519 7.329465,-64.02519 4.031192,0 7.329454,-2.74396 7.329454,-6.09764 0,-3.69554 21.173979,-6.09764 53.749349,-6.09764 32.57538,0 53.74937,2.4021 53.74937,6.09764 0,3.35368 3.29824,6.09764 7.32945,6.09764 6.0497,0 7.32946,11.17898 7.32946,64.02519 l 0,64.02521 -68.40828,0 -68.408268,0 0,-64.02521 z m 58.635658,-6.4657 0,-46.10038 -18.32364,1.89249 -18.323634,1.89248 -1.48555,35.90307 c -1.95154,47.16523 0.17446,52.51271 20.877414,52.51271 l 17.25541,0 0,-46.10037 z m 56.19252,0.36806 0,-42.68347 -18.32365,-1.89248 -18.32365,-1.89249 0,46.46844 0,46.46847 18.32365,-1.89249 18.32365,-1.89251 0,-42.68347 z"
           style="fill:#333333;fill-opacity:1" />
      </g>
    </g>
    <path
       inkscape:connector-curvature="0"
       id="path3913"
       d="m 81.182769,768.89055 c 0,-11.2846 3.21951,-12.13627 45.878161,-12.13627 45.71717,0 45.87814,-0.0533 45.87814,-15.17034 0,-13.93423 -1.77071,-15.17033 -21.73174,-15.17033 -18.51223,0 -21.73176,-1.79796 -21.73176,-12.13628 0,-10.33829 3.21953,-12.13626 21.73176,-12.13626 19.96103,0 21.73174,-1.2361 21.73174,-15.17033 0,-15.11711 -0.16097,-15.17035 -45.87814,-15.17035 -42.658651,0 -45.878161,-0.85166 -45.878161,-12.13626 0,-11.34916 3.21951,-12.13625 49.641331,-12.13625 44.10131,0 50.41824,1.35441 56.60283,12.13625 3.82881,6.67496 11.91468,12.13626 17.96859,12.13626 7.78756,0 11.00708,3.54979 11.00708,12.13628 0,8.89993 -3.21952,12.13627 -12.07319,12.13627 -10.19516,0 -12.07321,2.8318 -12.07321,18.20439 0,15.37262 1.87805,18.20442 12.07321,18.20442 7.51221,0 12.07319,3.4386 12.07319,9.10219 0,5.00622 -4.04195,9.10222 -8.98211,9.10222 -4.94016,0 -13.06208,6.82663 -18.04869,15.17033 -8.63978,14.45616 -11.39979,15.17033 -58.62783,15.17033 -46.341691,0 -49.561201,-0.78838 -49.561201,-12.13627 z m 164.195521,-61.53015 0,-61.53013 16.57818,22.08726 c 18.63231,24.824 24.71266,26.75999 36.0176,11.46804 4.31779,-5.84058 12.7221,-15.8211 18.67624,-22.17896 l 10.82572,-11.5597 0,61.62181 c 0,50.72953 -1.28043,61.62183 -7.2439,61.62183 -5.63417,0 -7.24394,-8.09084 -7.24394,-36.4088 0,-28.1098 -1.63019,-36.40881 -7.1519,-36.40881 -3.93356,0 -8.5155,6.82665 -10.18209,15.17034 -2.9342,14.68982 -16.47096,21.81429 -16.47096,8.66875 0,-6.82315 -11.81849,-23.83909 -16.55753,-23.83909 -1.51777,0 -2.75961,16.38396 -2.75961,36.40881 0,28.31796 -1.60974,36.4088 -7.2439,36.4088 -5.96277,0 -7.24391,-10.8821 -7.24391,-61.53015 z m 104.34619,51.93166 c -1.61223,-5.27918 -2.93131,-28.26646 -2.93131,-51.08285 0,-59.65333 0.60598,-60.68133 35.77041,-60.68133 16.82257,0 32.44326,3.1859 35.70291,7.28176 3.49063,4.38607 5.79514,25.62098 5.79514,53.39957 0,27.77856 -2.30451,49.01349 -5.79514,53.39958 -9.09863,11.4327 -64.91923,9.54593 -68.54201,-2.31673 z m 59.84931,-51.08285 0,-42.47694 -26.56104,0 -26.56104,0 0,42.47694 0,42.47695 26.56104,0 26.56104,0 0,-42.47695 z m 33.80496,-0.94049 0,-61.62181 10.44187,11.5597 c 5.74303,6.35786 19.05887,23.16503 29.59074,37.34929 10.53188,14.18428 21.04527,25.78957 23.36309,25.78957 2.31782,0 4.21423,-16.38396 4.21423,-36.4088 0,-28.31797 1.60975,-36.40879 7.24391,-36.40879 5.965,0 7.24392,10.91394 7.24392,61.81663 l 0,61.81663 -15.1277,-17.82266 c -8.32026,-9.80248 -22.12214,-26.69731 -30.67086,-37.54412 -8.54872,-10.84677 -16.95348,-19.72142 -18.67724,-19.72142 -1.72377,0 -3.13412,16.38396 -3.13412,36.40881 0,28.31796 -1.60975,36.4088 -7.24391,36.4088 -5.9635,0 -7.24393,-10.8923 -7.24393,-61.62183 z m 101.41488,52.51963 c 0,-7.23212 7.01126,-9.10219 34.12573,-9.10219 l 34.12572,0 -1.52808,-16.6874 c -1.47969,-16.1587 -2.56079,-16.74419 -34.12572,-18.48165 l -32.59765,-1.79428 0,-25.81572 c 0,-14.19864 2.60783,-29.09252 5.79514,-33.09747 3.37104,-4.23582 19.53174,-7.28176 38.63425,-7.28176 25.9708,0 32.8391,1.90372 32.8391,9.10218 0,7.15729 -6.70735,9.10221 -31.39032,9.10221 l -31.39033,0 0,17.91485 c 0,17.7374 0.29894,17.93273 30.18302,19.72143 29.25369,1.75097 30.23177,2.34294 31.76737,19.22716 0.87144,9.58131 0.28686,23.91729 -1.29931,31.85772 -2.71546,13.5946 -4.99208,14.43712 -39.01131,14.43712 -28.8939,0 -36.12761,-1.8225 -36.12761,-9.1022 z m 130.39056,-42.47694 0,-51.57914 -16.90247,0 c -11.80489,0 -16.90249,-2.74511 -16.90249,-9.10221 0,-7.37694 7.78052,-9.10218 41.04888,-9.10218 33.26837,0 41.04886,1.72524 41.04886,9.10218 0,6.3571 -5.09759,9.10221 -16.90246,9.10221 l -16.90249,0 0,51.57914 c 0,41.80271 -1.373,51.57914 -7.24391,51.57914 -5.87091,0 -7.24392,-9.77643 -7.24392,-51.57914 z m 67.60992,-9.1022 0,-60.68133 41.04885,0 c 33.26841,0 41.04895,1.72524 41.04895,9.10218 0,7.22398 -6.97566,9.10221 -33.80496,9.10221 l -33.805,0 0,18.2044 c 0,18.2044 0,18.2044 28.97568,18.2044 16.09753,0 28.97563,2.69696 28.97563,6.06814 0,3.3712 -12.8781,6.06812 -28.97563,6.06812 -28.97568,0 -28.97568,0 -28.97568,18.20442 l 0,18.20441 33.805,0 c 26.8293,0 33.80496,1.87822 33.80496,9.10219 0,7.37695 -7.78054,9.1022 -41.04895,9.1022 l -41.04885,0 0,-60.68134 z m 101.41489,0 0,-60.68133 35.70294,0 c 39.22819,0 41.56555,2.21796 41.56555,39.44286 0,28.10651 -4.31255,39.44287 -15.00456,39.44287 -12.16852,0 -11.5621,3.57881 3.89915,23.00618 10.9846,13.80256 11.74742,16.69942 4.83742,18.37156 -4.59782,1.11261 -15.35627,-7.54456 -24.47705,-19.6963 -21.34174,-28.43367 -32.03567,-28.58152 -32.03567,-0.44297 0,14.83321 -2.18467,21.23847 -7.2439,21.23847 -5.95603,0 -7.24388,-10.78779 -7.24388,-60.68134 z m 67.60993,-21.23847 0,-21.23847 -26.56107,0 -26.56108,0 0,21.23847 0,21.23847 26.56108,0 26.56107,0 0,-21.23847 z m -641.27071,-75.7953 c 1.77397,-15.18743 -0.4947,-20.3845 -13.90674,-31.8577 -8.81455,-7.54034 -16.04133,-15.5313 -16.05947,-17.75771 -0.0183,-2.22642 4.3563,-16.91467 9.72101,-32.64061 9.6085,-28.16608 10.03317,-28.54553 28.4694,-25.43835 17.31382,2.91799 20.41919,0.98066 41.46596,-25.86896 21.26657,-27.13001 22.54761,-30.55015 19.6394,-52.43341 l -3.1111,-23.41029 25.88152,-12.66917 25.88151,-12.66918 9.84903,18.87919 c 9.40076,18.0199 11.28036,18.86006 41.29612,18.45887 28.24374,-0.37749 32.63118,-2.15002 43.07115,-17.40077 l 11.62404,-16.98046 23.23811,14.18616 c 21.79047,13.30242 23.08248,15.3911 20.74005,33.52867 -2.19007,16.95801 0.45966,23.05891 21.49394,49.48911 22.07108,27.73297 25.45385,29.90025 42.25085,27.06934 17.8297,-3.00495 18.4492,-2.45092 26.35791,23.57004 10.84188,35.67176 10.42932,38.99611 -6.38879,51.47937 -10.5797,7.8528 -14.48785,15.31138 -14.48785,27.64968 l 0,16.89607 -42.25619,-0.0319 -42.25619,-0.0319 -7.24392,-28.347 c -18.52281,-72.48361 -94.7543,-92.28814 -134.77525,-35.01384 -7.9893,11.43358 -16.87441,31.7468 -19.74464,45.14051 l -5.21865,24.35222 -43.82551,0 -43.82549,0 2.11979,-18.148 z m 423.95309,6.51788 c 0,-6.39659 -5.17003,-16.63656 -11.48894,-22.75552 -10.78167,-10.4405 -11.07814,-12.33935 -4.81542,-30.84678 5.27265,-15.58162 9.52212,-19.72142 20.24399,-19.72142 17.03398,0 38.18956,-26.79276 40.35742,-51.11119 2.12585,-23.84736 26.07927,-35.69307 36.37838,-17.99031 9.56642,16.44312 44.63217,16.98594 54.96546,0.85087 7.27753,-11.36373 8.43683,-11.46704 22.93905,-2.04386 10.39178,6.75232 15.27418,14.36126 15.27418,23.80399 0,18.812 23.86908,46.4905 40.09197,46.4905 10.13308,0 14.41397,4.34701 19.39938,19.69888 5.92937,18.25907 5.57738,20.50895 -4.81545,30.78111 -6.16685,6.0952 -11.2124,14.97998 -11.2124,19.74395 0,6.41712 -6.65146,8.66179 -25.66664,8.66179 -24.50907,0 -26.02502,-0.9444 -33.61407,-20.94144 -21.85745,-57.59375 -80.55373,-55.60364 -98.9855,3.35611 -7.31079,23.38595 -7.68656,23.65346 -33.22292,23.65346 -22.2343,0 -25.82849,-1.61842 -25.82849,-11.63014 z M 81.182769,541.33551 c 0,-65.29333 0.609812,-69.78355 9.477335,-69.78355 8.633807,0 9.600946,4.99591 10.865876,56.13024 l 1.38856,56.13027 18.10979,1.88332 18.10979,1.88333 0,-48.91136 c 0,-44.86598 0.79886,-48.91139 9.65856,-48.91139 8.85971,0 9.65856,4.04541 9.65856,48.91139 l 0,48.91136 18.1098,-1.88333 18.10981,-1.88332 1.38854,-56.13027 c 1.26495,-51.13433 2.23207,-56.13024 10.86587,-56.13024 8.86753,0 9.47734,4.49022 9.47734,69.78355 l 0,69.78355 -67.60992,0 -67.609911,0 0,-69.78355 z M 640.17191,509.5261 c -4.64817,-1.35035 -8.45124,-6.03693 -8.45124,-10.41457 0,-10.27262 -20.99125,-27.55957 -33.46512,-27.55957 -11.01645,0 -22.58673,-21.28109 -14.84072,-27.29646 7.49035,-5.81687 5.71605,-33.34451 -2.40159,-37.25861 -12.56246,-6.05733 -7.91003,-28.66611 8.63727,-41.97334 11.29825,-9.08597 15.29568,-16.60531 14.72297,-27.69447 -0.93423,-18.08957 15.62171,-34.64114 24.05315,-24.0468 7.56587,9.5068 22.95317,8.05841 32.75072,-3.08282 9.52643,-10.83294 28.49467,-6.62182 28.49467,6.32611 0,11.01498 22.04538,28.22773 30.76692,24.02244 9.5516,-4.60555 20.59253,20.35147 13.144,29.71076 -8.06375,10.13236 -6.29356,27.57475 3.58525,35.32682 10.46592,8.21277 8.45433,35.6257 -2.61419,35.6257 -10.00163,0 -25.61907,25.35133 -22.83611,37.06913 3.52871,14.85766 -11.0562,27.57608 -21.88151,19.08129 -9.54422,-7.48948 -28.77451,-3.47564 -36.38395,7.59424 -2.65611,3.86396 -8.63234,5.92054 -13.28052,4.57015 z m 46.33636,-81.9559 c 12.16061,-20.55679 7.16178,-45.0863 -11.93242,-58.5529 -25.46552,-17.9601 -57.5473,17.27804 -47.32927,51.98577 8.93668,30.35542 42.95911,34.12565 59.26169,6.56713 z M 81.182769,377.49588 c 0,-52.59051 1.264818,-63.7154 7.243927,-63.7154 3.984146,0 7.243915,-2.73068 7.243915,-6.06813 0,-3.67766 20.926869,-6.06814 53.122069,-6.06814 32.19521,0 53.12209,2.39048 53.12209,6.06814 0,3.33745 3.25975,6.06813 7.24391,6.06813 5.9791,0 7.24392,11.12489 7.24392,63.7154 l 0,63.71541 -67.60992,0 -67.609911,0 0,-63.71541 z m 57.951351,-6.43442 0,-45.87731 -18.10979,1.88333 -18.10979,1.88332 -1.46821,35.72935 c -1.928769,46.93701 0.17242,52.25862 20.63376,52.25862 l 17.05403,0 0,-45.87731 z m 55.53673,0.36628 0,-42.47694 -18.10981,-1.88332 -18.1098,-1.88333 0,46.24359 0,46.24363 18.1098,-1.88334 18.10981,-1.88335 0,-42.47694 z"
       style="fill:#ffffff;fill-opacity:1" />
  </g>
</svg>
