<?xml version="1.0" encoding="UTF-8" standalone="no"?>
<!-- Created with Inkscape (http://www.inkscape.org/) -->

<svg
   xmlns:dc="http://purl.org/dc/elements/1.1/"
   xmlns:cc="http://creativecommons.org/ns#"
   xmlns:rdf="http://www.w3.org/1999/02/22-rdf-syntax-ns#"
   xmlns:svg="http://www.w3.org/2000/svg"
   xmlns="http://www.w3.org/2000/svg"
   xmlns:sodipodi="http://sodipodi.sourceforge.net/DTD/sodipodi-0.dtd"
   xmlns:inkscape="http://www.inkscape.org/namespaces/inkscape"
   width="1024"
   height="1024"
   id="svg2"
   version="1.1"
   inkscape:version="0.48.4 r9939"
   sodipodi:docname="New document 1">
  <defs
     id="defs4" />
  <sodipodi:namedview
     id="base"
     pagecolor="#ffffff"
     bordercolor="#666666"
     borderopacity="1.0"
     inkscape:pageopacity="0.0"
     inkscape:pageshadow="2"
     inkscape:zoom="0.42177734"
     inkscape:cx="224.3194"
     inkscape:cy="436.24406"
     inkscape:document-units="px"
     inkscape:current-layer="layer1"
     showgrid="false"
     inkscape:window-width="1327"
     inkscape:window-height="744"
     inkscape:window-x="1405"
     inkscape:window-y="24"
     inkscape:window-maximized="1" />
  <metadata
     id="metadata7">
    <rdf:RDF>
      <cc:Work
         rdf:about="">
        <dc:format>image/svg+xml</dc:format>
        <dc:type
           rdf:resource="http://purl.org/dc/dcmitype/StillImage" />
        <dc:title></dc:title>
      </cc:Work>
    </rdf:RDF>
  </metadata>
  <g
     inkscape:label="Layer 1"
     inkscape:groupmode="layer"
     id="layer1"
     transform="translate(0,-28.362183)">
    <path
       sodipodi:type="arc"
       style="fill:#141414;fill-opacity:1;stroke:none"
       id="path3066"
       sodipodi:cx="471.42856"
       sodipodi:cy="492.57144"
       sodipodi:rx="460"
       sodipodi:ry="417.14285"
       d="m 931.42856,492.57144 a 460,417.14285 0 1 1 -920.000002,0 460,417.14285 0 1 1 920.000002,0 z"
       transform="matrix(1,0,0,1.1027397,36,-5.828634)" />
    <path
       style="fill:#00f900;fill-opacity:1"
       d="m 142.4659,717.68047 c 0,-9.27446 2.79085,-9.97442 39.7697,-9.97442 39.63014,0 39.76968,-0.0439 39.76968,-12.46802 0,-11.4521 -1.53496,-12.46802 -18.83827,-12.46802 -16.04741,0 -18.83827,-1.47769 -18.83827,-9.97442 0,-8.49672 2.79086,-9.97441 18.83827,-9.97441 17.30331,0 18.83827,-1.01592 18.83827,-12.46802 0,-12.42428 -0.13954,-12.46803 -39.76968,-12.46803 -36.97885,0 -39.7697,-0.69995 -39.7697,-9.97441 0,-9.32752 2.79085,-9.97441 43.03181,-9.97441 38.22943,0 43.70529,1.11315 49.06643,9.97441 3.31903,5.48593 10.32829,9.97441 15.57615,9.97441 6.75069,0 9.54155,2.91747 9.54155,9.97442 0,7.31458 -2.79086,9.97442 -10.46571,9.97442 -8.83771,0 -10.46571,2.32737 -10.46571,14.96162 0,12.63427 1.628,14.96163 10.46571,14.96163 6.512,0 10.46571,2.82608 10.46571,7.48081 0,4.11445 -3.50379,7.48082 -7.78619,7.48082 -4.2824,0 -11.32292,5.6106 -15.64559,12.46802 -7.48943,11.88106 -9.88196,12.46802 -50.8218,12.46802 -40.17151,0 -42.96236,-0.64794 -42.96236,-9.97442 z m 142.33364,-50.56969 0,-50.56968 14.37087,18.15283 c 16.1515,20.40206 21.42228,21.99319 31.22202,9.42522 3.7429,-4.80019 11.02822,-13.00287 16.18959,-18.22819 l 9.38433,-9.50056 0,50.64503 c 0,41.69301 -1.10995,50.64504 -6.27942,50.64504 -4.884,0 -6.27943,-6.64961 -6.27943,-29.92325 0,-23.10255 -1.41314,-29.92325 -6.19966,-29.92325 -3.40982,0 -7.3817,5.61061 -8.8264,12.46802 -2.54352,12.07311 -14.27792,17.92849 -14.27792,7.12458 0,-5.60774 -10.24491,-19.5926 -14.35297,-19.5926 -1.31569,0 -2.39217,13.46546 -2.39217,29.92325 0,23.27364 -1.39542,29.92325 -6.27942,29.92325 -5.16885,0 -6.27942,-8.94366 -6.27942,-50.56969 z m 90.45298,42.68099 c -1.39757,-4.33879 -2.54103,-23.23131 -2.54103,-41.98338 0,-49.02719 0.52531,-49.87208 31.00775,-49.87208 14.58272,0 28.12359,2.61839 30.94924,5.98465 3.02587,3.60478 5.02354,21.05709 5.02354,43.88743 0,22.83033 -1.99767,40.28264 -5.02354,43.88743 -7.88719,9.39617 -56.27554,7.84551 -59.41596,-1.90405 z m 51.88065,-41.98338 0,-34.91046 -23.02456,0 -23.02456,0 0,34.91046 0,34.91046 23.02456,0 23.02456,0 0,-34.91046 z m 29.30398,-0.77296 0,-50.64503 9.05158,9.50056 c 4.97838,5.22532 16.52128,19.03861 25.65088,30.69621 9.12961,11.6576 18.24319,21.19563 20.2524,21.19563 2.00921,0 3.65312,-13.46546 3.65312,-29.92325 0,-23.27364 1.39542,-29.92324 6.27942,-29.92324 5.17078,0 6.27943,8.96982 6.27943,50.80514 l 0,50.80515 -13.11353,-14.64789 c -7.21244,-8.05634 -19.17667,-21.94168 -26.58717,-30.85632 -7.41049,-8.91463 -14.6962,-16.20842 -16.19045,-16.20842 -1.49426,0 -2.71683,13.46546 -2.71683,29.92325 0,23.27364 -1.39542,29.92325 -6.27942,29.92325 -5.16948,0 -6.27943,-8.95203 -6.27943,-50.64504 z m 87.91196,43.16423 c 0,-5.94385 6.07775,-7.48081 29.58204,-7.48081 l 29.58204,0 -1.32462,-13.71483 c -1.28268,-13.28034 -2.21983,-13.76154 -29.58204,-15.18949 l -28.25742,-1.47467 0,-21.21713 c 0,-11.66942 2.2606,-23.91022 5.02354,-27.20177 2.9222,-3.48127 16.93118,-5.98465 33.49027,-5.98465 22.51291,0 28.46673,1.56461 28.46673,7.48081 0,5.88235 -5.81429,7.48081 -27.21084,7.48081 l -27.21085,0 0,14.72365 c 0,14.57782 0.25913,14.73835 26.16428,16.20842 25.3587,1.43907 26.20655,1.92559 27.5377,15.8022 0.75541,7.87458 0.24866,19.65686 -1.12631,26.18285 -2.35392,11.17298 -4.32741,11.86542 -33.81714,11.86542 -25.04681,0 -31.31738,-1.49785 -31.31738,-7.48081 z m 113.02965,-34.91046 0,-42.39127 -14.65198,0 c -10.23312,0 -14.652,-2.25612 -14.652,-7.48081 0,-6.06288 6.74457,-7.48081 35.58341,-7.48081 28.83885,0 35.5834,1.41793 35.5834,7.48081 0,5.22469 -4.41887,7.48081 -14.65198,7.48081 l -14.652,0 0,42.39127 c 0,34.35632 -1.1902,42.39127 -6.27942,42.39127 -5.08923,0 -6.27943,-8.03495 -6.27943,-42.39127 z m 58.60797,-7.48081 0,-49.87208 35.58339,0 c 28.83887,0 35.58347,1.41793 35.58347,7.48081 0,5.93715 -6.04688,7.48081 -29.30399,7.48081 l -29.30402,0 0,14.96162 c 0,14.96163 0,14.96163 25.1177,14.96163 13.95423,0 25.11766,2.21654 25.11766,4.98721 0,2.77067 -11.16343,4.9872 -25.11766,4.9872 -25.1177,0 -25.1177,0 -25.1177,14.96163 l 0,14.96163 29.30402,0 c 23.25711,0 29.30399,1.54366 29.30399,7.48081 0,6.06288 -6.7446,7.48081 -35.58347,7.48081 l -35.58339,0 0,-49.87208 z m 87.91197,0 0,-49.87208 30.94924,0 c 34.00512,0 36.03129,1.82287 36.03129,32.41685 0,23.09986 -3.73832,32.41685 -13.00678,32.41685 -10.54835,0 -10.0226,2.94132 3.38003,18.90806 9.52205,11.34388 10.18333,13.72473 4.19331,15.09899 -3.98565,0.91442 -13.31162,-6.20062 -21.21805,-16.18776 -18.50013,-23.36873 -27.77025,-23.49025 -27.77025,-0.36406 0,12.19095 -1.89378,17.45523 -6.2794,17.45523 -5.16302,0 -6.27939,-8.86615 -6.27939,-49.87208 z m 58.60798,-17.45523 0,-17.45523 -23.0246,0 -23.02459,0 0,17.45523 0,17.45523 23.02459,0 23.0246,0 0,-17.45523 z M 306.61821,588.0594 c 1.53777,-12.48208 -0.42883,-16.75339 -12.05511,-26.18284 -7.64094,-6.19717 -13.90551,-12.76469 -13.92124,-14.59451 -0.0159,-1.82982 3.77629,-13.90164 8.4267,-26.82628 8.32919,-23.14882 8.69731,-23.46068 24.67884,-20.90699 15.00856,2.39821 17.70047,0.80598 35.94495,-21.26087 18.43503,-22.29732 19.54551,-25.10821 17.02452,-43.09337 l -2.69688,-19.24018 22.43551,-10.41239 22.43551,-10.4124 8.53768,15.51621 c 8.14909,14.80998 9.77843,15.50049 35.79773,15.17076 24.48322,-0.31025 28.28648,-1.76703 37.33642,-14.30114 l 10.07636,-13.9557 20.14405,11.65915 c 18.88918,10.93284 20.00916,12.64946 17.97862,27.55615 -1.89848,13.93726 0.39846,18.9514 18.63212,40.67355 19.13241,22.79285 22.06478,24.57407 36.62534,22.24744 15.45576,-2.46967 15.99277,-2.01434 22.84848,19.37147 9.39833,29.31749 9.0407,32.04968 -5.53816,42.30927 -9.17106,6.45396 -12.55886,12.58394 -12.55886,22.7244 l 0,13.88634 -36.62997,-0.0262 -36.62998,-0.0262 -6.27942,-23.2975 c -16.05659,-59.57205 -82.1382,-75.84877 -116.83054,-28.77682 -6.92557,9.39689 -14.62766,26.0917 -17.11574,37.09956 l -4.5238,20.01432 -37.99034,0 -37.99033,0 1.83754,-14.91527 z m 367.50569,5.35683 c 0,-5.25715 -4.48167,-13.67306 -9.95925,-18.70203 -9.34613,-8.58073 -9.60313,-10.14133 -4.17427,-25.35201 4.57063,-12.80604 8.2543,-16.20842 17.54861,-16.20842 14.76598,0 33.10479,-22.02012 34.98401,-42.00667 1.8428,-19.59939 22.60693,-29.33501 31.53477,-14.78567 8.29269,13.51409 38.68959,13.96022 47.64706,0.69931 6.30856,-9.33949 7.31351,-9.4244 19.88481,-1.67978 9.00817,5.54952 13.24049,11.80307 13.24049,19.56375 0,15.46098 20.69101,38.20906 34.75391,38.20906 8.78393,0 12.49484,3.57268 16.81642,16.1899 5.13992,15.00655 4.83481,16.85565 -4.17427,25.29802 -5.34576,5.00945 -9.71951,12.31157 -9.71951,16.22694 0,5.27403 -5.76588,7.11884 -22.24922,7.11884 -21.24583,0 -22.55994,-0.77617 -29.13855,-17.21111 -18.94722,-47.33448 -69.82836,-45.69887 -85.80602,2.75829 -6.3374,19.22017 -6.66313,19.44003 -28.79945,19.44003 -19.2739,0 -22.38954,-1.33012 -22.38954,-9.55845 z m -531.658,-62.75607 c 0,-53.66254 0.52862,-57.3529 8.21547,-57.3529 7.48426,0 8.32262,4.10597 9.41914,46.13168 l 1.20367,46.13168 15.69856,1.54785 15.69856,1.54786 0,-40.19872 c 0,-36.87392 0.69249,-40.19872 8.37257,-40.19872 7.68008,0 8.37256,3.3248 8.37256,40.19872 l 0,40.19872 15.69857,-1.54786 15.69856,-1.54785 1.20367,-46.13168 c 1.09652,-42.02571 1.93488,-46.13168 9.41913,-46.13168 7.68686,0 8.21548,3.69036 8.21548,57.3529 l 0,57.35289 -58.60797,0 -58.60797,0 0,-57.35289 z m 484.56231,-26.14315 c -4.0293,-1.10982 -7.32599,-4.96156 -7.32599,-8.55941 0,-8.44275 -18.19636,-22.65034 -29.0094,-22.65034 -9.54966,0 -19.57941,-17.49026 -12.86474,-22.4341 6.49305,-4.7807 4.95497,-27.4048 -2.08184,-30.62168 -10.88982,-4.97833 -6.85684,-23.55977 7.48726,-34.49656 9.79393,-7.46747 13.25913,-13.64739 12.76267,-22.76122 -0.80984,-14.86724 13.54175,-28.47046 20.85058,-19.76331 6.55852,7.81334 19.89707,6.62295 28.39012,-2.53366 8.25803,-8.90326 24.70074,-5.44226 24.70074,5.19922 0,9.05287 19.11014,23.19949 26.67044,19.74328 8.27984,-3.78515 17.85073,16.72624 11.39394,24.41835 -6.99009,8.32747 -5.45561,22.66282 3.10789,29.034 9.07243,6.74981 7.32867,29.27964 -2.26612,29.27964 -8.66996,0 -22.20802,20.83546 -19.79559,30.46595 3.05887,12.21104 -9.58412,22.66391 -18.96809,15.6823 -8.27345,-6.15536 -24.94331,-2.85651 -31.53959,6.24147 -2.30246,3.17567 -7.48298,4.8659 -11.51228,3.75607 z m 40.16688,-67.35697 c 10.54149,-16.89498 6.20823,-37.05501 -10.34367,-48.12278 -22.0749,-14.76084 -49.88514,14.20027 -41.02759,42.72545 7.7468,24.94818 37.2393,28.04681 51.37126,5.39733 z M 142.4659,396.00553 c 0,-43.22247 1.09641,-52.36568 6.27943,-52.36568 3.45368,0 6.27942,-2.24425 6.27942,-4.98721 0,-3.02255 18.14056,-4.98721 46.04912,-4.98721 27.90856,0 46.04912,1.96466 46.04912,4.98721 0,2.74296 2.82573,4.98721 6.27942,4.98721 5.18301,0 6.27943,9.14321 6.27943,52.36568 l 0,52.36569 -58.60797,0 -58.60797,0 0,-52.36569 z m 50.2354,-5.28825 0,-37.70512 -15.69856,1.54785 -15.69856,1.54786 -1.27272,29.36482 c -1.67196,38.57604 0.14946,42.9497 17.88647,42.9497 l 14.78337,0 0,-37.70511 z m 48.14226,0.30104 0,-34.91045 -15.69856,-1.54786 -15.69857,-1.54785 0,38.00616 0,38.00617 15.69857,-1.54785 15.69856,-1.54786 0,-34.91046 z"
       id="path3913"
       inkscape:connector-curvature="0" />
  </g>
</svg>
